solid OpenSCAD_Model
  facet normal -1 0 0
    outer loop
      vertex 0 61.5 31
      vertex 0 97.5 33
      vertex 0 97.5 31
    endloop
  endfacet
  facet normal -1 -0 0
    outer loop
      vertex 0 97.5 33
      vertex 0 61.5 31
      vertex 0 61.5 33
    endloop
  endfacet
  facet normal 0 0 1
    outer loop
      vertex 4.42388 65.3827 33
      vertex 6 97.5 33
      vertex 4.42388 94.6173 33
    endloop
  endfacet
  facet normal 0 0 1
    outer loop
      vertex 6 97.5 33
      vertex 4.42388 65.3827 33
      vertex 4.5 65 33
    endloop
  endfacet
  facet normal -0 0 1
    outer loop
      vertex 4.20711 94.2929 33
      vertex 4.42388 65.3827 33
      vertex 4.42388 94.6173 33
    endloop
  endfacet
  facet normal 0 0 1
    outer loop
      vertex 4.20711 94.2929 33
      vertex 4.20711 65.7071 33
      vertex 4.42388 65.3827 33
    endloop
  endfacet
  facet normal -0 0 1
    outer loop
      vertex 3.88268 94.0761 33
      vertex 4.20711 65.7071 33
      vertex 4.20711 94.2929 33
    endloop
  endfacet
  facet normal 0 0 1
    outer loop
      vertex 3.88268 94.0761 33
      vertex 3.88268 65.9239 33
      vertex 4.20711 65.7071 33
    endloop
  endfacet
  facet normal -0 0 1
    outer loop
      vertex 3.5 94 33
      vertex 3.88268 65.9239 33
      vertex 3.88268 94.0761 33
    endloop
  endfacet
  facet normal 0 0 1
    outer loop
      vertex 3.5 94 33
      vertex 3.5 66 33
      vertex 3.88268 65.9239 33
    endloop
  endfacet
  facet normal 0 0 1
    outer loop
      vertex 3.11732 94.0761 33
      vertex 3.5 66 33
      vertex 3.5 94 33
    endloop
  endfacet
  facet normal 0 0 1
    outer loop
      vertex 3.11732 94.0761 33
      vertex 3.11732 65.9239 33
      vertex 3.5 66 33
    endloop
  endfacet
  facet normal 0 0 1
    outer loop
      vertex 2.79289 94.2929 33
      vertex 3.11732 65.9239 33
      vertex 3.11732 94.0761 33
    endloop
  endfacet
  facet normal 0 0 1
    outer loop
      vertex 2.79289 94.2929 33
      vertex 2.79289 65.7071 33
      vertex 3.11732 65.9239 33
    endloop
  endfacet
  facet normal 0 0 1
    outer loop
      vertex 0 97.5 33
      vertex 2.79289 94.2929 33
      vertex 2.57612 94.6173 33
    endloop
  endfacet
  facet normal 0 0 1
    outer loop
      vertex 2.79289 94.2929 33
      vertex 0 97.5 33
      vertex 2.79289 65.7071 33
    endloop
  endfacet
  facet normal 0 0 1
    outer loop
      vertex 0 97.5 33
      vertex 2.57612 94.6173 33
      vertex 2.5 95 33
    endloop
  endfacet
  facet normal 0 0 1
    outer loop
      vertex 2.79289 65.7071 33
      vertex 0 97.5 33
      vertex 2.57612 65.3827 33
    endloop
  endfacet
  facet normal 0 0 1
    outer loop
      vertex 4.42388 94.6173 33
      vertex 6 97.5 33
      vertex 4.5 95 33
    endloop
  endfacet
  facet normal 0 0 1
    outer loop
      vertex 6 97.5 33
      vertex 4.42388 95.3827 33
      vertex 4.5 95 33
    endloop
  endfacet
  facet normal 0 0 1
    outer loop
      vertex 6 97.5 33
      vertex 4.20711 95.7071 33
      vertex 4.42388 95.3827 33
    endloop
  endfacet
  facet normal 0 0 1
    outer loop
      vertex 6 97.5 33
      vertex 3.88268 95.9239 33
      vertex 4.20711 95.7071 33
    endloop
  endfacet
  facet normal 0 0 1
    outer loop
      vertex 6 97.5 33
      vertex 3.5 96 33
      vertex 3.88268 95.9239 33
    endloop
  endfacet
  facet normal -0 0 1
    outer loop
      vertex 0 97.5 33
      vertex 3.5 96 33
      vertex 6 97.5 33
    endloop
  endfacet
  facet normal 0 0 1
    outer loop
      vertex 0 61.5 33
      vertex 2.57612 65.3827 33
      vertex 0 97.5 33
    endloop
  endfacet
  facet normal 0 0 1
    outer loop
      vertex 2.57612 95.3827 33
      vertex 0 97.5 33
      vertex 2.5 95 33
    endloop
  endfacet
  facet normal 0 0 1
    outer loop
      vertex 2.79289 95.7071 33
      vertex 0 97.5 33
      vertex 2.57612 95.3827 33
    endloop
  endfacet
  facet normal 0 0 1
    outer loop
      vertex 3.11732 95.9239 33
      vertex 0 97.5 33
      vertex 2.79289 95.7071 33
    endloop
  endfacet
  facet normal 0 0 1
    outer loop
      vertex 3.5 96 33
      vertex 0 97.5 33
      vertex 3.11732 95.9239 33
    endloop
  endfacet
  facet normal 0 0 1
    outer loop
      vertex 6 97.5 33
      vertex 4.5 65 33
      vertex 6 61.5 33
    endloop
  endfacet
  facet normal -0 0 1
    outer loop
      vertex 4.42388 64.6173 33
      vertex 6 61.5 33
      vertex 4.5 65 33
    endloop
  endfacet
  facet normal -0 0 1
    outer loop
      vertex 4.20711 64.2929 33
      vertex 6 61.5 33
      vertex 4.42388 64.6173 33
    endloop
  endfacet
  facet normal -0 0 1
    outer loop
      vertex 3.88268 64.0761 33
      vertex 6 61.5 33
      vertex 4.20711 64.2929 33
    endloop
  endfacet
  facet normal -0 0 1
    outer loop
      vertex 3.5 64 33
      vertex 6 61.5 33
      vertex 3.88268 64.0761 33
    endloop
  endfacet
  facet normal 0 0 1
    outer loop
      vertex 0 61.5 33
      vertex 3.5 64 33
      vertex 3.11732 64.0761 33
    endloop
  endfacet
  facet normal 0 0 1
    outer loop
      vertex 0 61.5 33
      vertex 3.11732 64.0761 33
      vertex 2.79289 64.2929 33
    endloop
  endfacet
  facet normal 0 0 1
    outer loop
      vertex 3.5 64 33
      vertex 0 61.5 33
      vertex 6 61.5 33
    endloop
  endfacet
  facet normal 0 0 1
    outer loop
      vertex 2.57612 64.6173 33
      vertex 0 61.5 33
      vertex 2.79289 64.2929 33
    endloop
  endfacet
  facet normal 0 0 1
    outer loop
      vertex 2.5 65 33
      vertex 0 61.5 33
      vertex 2.57612 64.6173 33
    endloop
  endfacet
  facet normal 0 0 1
    outer loop
      vertex 2.57612 65.3827 33
      vertex 0 61.5 33
      vertex 2.5 65 33
    endloop
  endfacet
  facet normal -0 0 1
    outer loop
      vertex 8 95.5 33
      vertex 16 63.5 33
      vertex 16 95.5 33
    endloop
  endfacet
  facet normal 0 0 1
    outer loop
      vertex 16 63.5 33
      vertex 8 95.5 33
      vertex 8 63.5 33
    endloop
  endfacet
  facet normal -0 0 1
    outer loop
      vertex 34.4239 94.6173 33
      vertex 34.5 65 33
      vertex 34.5 95 33
    endloop
  endfacet
  facet normal 0 0 1
    outer loop
      vertex 34.4239 94.6173 33
      vertex 34.4239 65.3827 33
      vertex 34.5 65 33
    endloop
  endfacet
  facet normal -0 0 1
    outer loop
      vertex 34.2071 94.2929 33
      vertex 34.4239 65.3827 33
      vertex 34.4239 94.6173 33
    endloop
  endfacet
  facet normal 0 0 1
    outer loop
      vertex 34.2071 94.2929 33
      vertex 34.2071 65.7071 33
      vertex 34.4239 65.3827 33
    endloop
  endfacet
  facet normal -0 0 1
    outer loop
      vertex 33.8827 94.0761 33
      vertex 34.2071 65.7071 33
      vertex 34.2071 94.2929 33
    endloop
  endfacet
  facet normal 0 0 1
    outer loop
      vertex 33.8827 94.0761 33
      vertex 33.8827 65.9239 33
      vertex 34.2071 65.7071 33
    endloop
  endfacet
  facet normal -0 0 1
    outer loop
      vertex 33.5 94 33
      vertex 33.8827 65.9239 33
      vertex 33.8827 94.0761 33
    endloop
  endfacet
  facet normal 0 0 1
    outer loop
      vertex 33.5 94 33
      vertex 33.5 66 33
      vertex 33.8827 65.9239 33
    endloop
  endfacet
  facet normal 0 0 1
    outer loop
      vertex 33.1173 94.0761 33
      vertex 33.5 66 33
      vertex 33.5 94 33
    endloop
  endfacet
  facet normal 0 0 1
    outer loop
      vertex 33.1173 94.0761 33
      vertex 33.1173 65.9239 33
      vertex 33.5 66 33
    endloop
  endfacet
  facet normal 0 0 1
    outer loop
      vertex 32.7929 94.2929 33
      vertex 33.1173 65.9239 33
      vertex 33.1173 94.0761 33
    endloop
  endfacet
  facet normal 0 0 1
    outer loop
      vertex 32.7929 94.2929 33
      vertex 32.7929 65.7071 33
      vertex 33.1173 65.9239 33
    endloop
  endfacet
  facet normal 0 0 1
    outer loop
      vertex 16 95.5 33
      vertex 32.7929 94.2929 33
      vertex 32.5761 94.6173 33
    endloop
  endfacet
  facet normal 0 0 1
    outer loop
      vertex 32.7929 94.2929 33
      vertex 16 95.5 33
      vertex 32.7929 65.7071 33
    endloop
  endfacet
  facet normal 0 0 1
    outer loop
      vertex 16 95.5 33
      vertex 32.5761 94.6173 33
      vertex 32.5 95 33
    endloop
  endfacet
  facet normal 0 0 1
    outer loop
      vertex 16 63.5 33
      vertex 32.7929 65.7071 33
      vertex 16 95.5 33
    endloop
  endfacet
  facet normal 0 0 1
    outer loop
      vertex 34.5 65 33
      vertex 35 97.5 33
      vertex 34.5 95 33
    endloop
  endfacet
  facet normal 0 0 1
    outer loop
      vertex 35 97.5 33
      vertex 34.4239 95.3827 33
      vertex 34.5 95 33
    endloop
  endfacet
  facet normal 0 0 1
    outer loop
      vertex 35 97.5 33
      vertex 34.2071 95.7071 33
      vertex 34.4239 95.3827 33
    endloop
  endfacet
  facet normal 0 0 1
    outer loop
      vertex 35 97.5 33
      vertex 33.8827 95.9239 33
      vertex 34.2071 95.7071 33
    endloop
  endfacet
  facet normal 0 0 1
    outer loop
      vertex 35 97.5 33
      vertex 33.5 96 33
      vertex 33.8827 95.9239 33
    endloop
  endfacet
  facet normal 0 0 1
    outer loop
      vertex 35 97.5 33
      vertex 33.1173 95.9239 33
      vertex 33.5 96 33
    endloop
  endfacet
  facet normal 0 0 1
    outer loop
      vertex 35 97.5 33
      vertex 32.7929 95.7071 33
      vertex 33.1173 95.9239 33
    endloop
  endfacet
  facet normal -0 0 1
    outer loop
      vertex 16 95.5 33
      vertex 32.5 95 33
      vertex 16 97.5 33
    endloop
  endfacet
  facet normal 0 0 1
    outer loop
      vertex 32.5761 95.3827 33
      vertex 16 97.5 33
      vertex 32.5 95 33
    endloop
  endfacet
  facet normal 0 0 1
    outer loop
      vertex 32.7929 95.7071 33
      vertex 16 97.5 33
      vertex 32.5761 95.3827 33
    endloop
  endfacet
  facet normal -0 0 1
    outer loop
      vertex 16 97.5 33
      vertex 32.7929 95.7071 33
      vertex 35 97.5 33
    endloop
  endfacet
  facet normal 0 0 1
    outer loop
      vertex 35 97.5 33
      vertex 34.5 65 33
      vertex 35 61.5 33
    endloop
  endfacet
  facet normal -0 0 1
    outer loop
      vertex 34.4239 64.6173 33
      vertex 35 61.5 33
      vertex 34.5 65 33
    endloop
  endfacet
  facet normal -0 0 1
    outer loop
      vertex 34.2071 64.2929 33
      vertex 35 61.5 33
      vertex 34.4239 64.6173 33
    endloop
  endfacet
  facet normal -0 0 1
    outer loop
      vertex 33.8827 64.0761 33
      vertex 35 61.5 33
      vertex 34.2071 64.2929 33
    endloop
  endfacet
  facet normal -0 0 1
    outer loop
      vertex 33.5 64 33
      vertex 35 61.5 33
      vertex 33.8827 64.0761 33
    endloop
  endfacet
  facet normal 0 0 1
    outer loop
      vertex 33.1173 64.0761 33
      vertex 35 61.5 33
      vertex 33.5 64 33
    endloop
  endfacet
  facet normal 0 0 1
    outer loop
      vertex 32.7929 64.2929 33
      vertex 35 61.5 33
      vertex 33.1173 64.0761 33
    endloop
  endfacet
  facet normal 0 0 1
    outer loop
      vertex 32.7929 65.7071 33
      vertex 16 63.5 33
      vertex 32.5761 65.3827 33
    endloop
  endfacet
  facet normal 0 0 1
    outer loop
      vertex 32.5761 65.3827 33
      vertex 16 63.5 33
      vertex 32.5 65 33
    endloop
  endfacet
  facet normal 0 0 1
    outer loop
      vertex 32.5 65 33
      vertex 16 63.5 33
      vertex 32.5761 64.6173 33
    endloop
  endfacet
  facet normal 0 0 1
    outer loop
      vertex 16 61.5 33
      vertex 32.5761 64.6173 33
      vertex 16 63.5 33
    endloop
  endfacet
  facet normal 0 0 1
    outer loop
      vertex 32.5761 64.6173 33
      vertex 16 61.5 33
      vertex 32.7929 64.2929 33
    endloop
  endfacet
  facet normal 0 0 1
    outer loop
      vertex 32.7929 64.2929 33
      vertex 16 61.5 33
      vertex 35 61.5 33
    endloop
  endfacet
  facet normal 1 -0 0
    outer loop
      vertex 35 61.5 33
      vertex 35 97.5 31
      vertex 35 97.5 33
    endloop
  endfacet
  facet normal 1 0 0
    outer loop
      vertex 35 97.5 31
      vertex 35 61.5 33
      vertex 35 61.5 31
    endloop
  endfacet
  facet normal 0 0 -1
    outer loop
      vertex 32.7929 65.7071 31
      vertex 4.20711 65.7071 31
      vertex 32.7929 94.2929 31
    endloop
  endfacet
  facet normal 0 0 -1
    outer loop
      vertex 32.7929 94.2929 31
      vertex 4.42388 94.6173 31
      vertex 4.5 95 31
    endloop
  endfacet
  facet normal 0 0 -1
    outer loop
      vertex 4.20711 94.2929 31
      vertex 32.7929 94.2929 31
      vertex 4.20711 65.7071 31
    endloop
  endfacet
  facet normal 0 0 -1
    outer loop
      vertex 32.7929 94.2929 31
      vertex 4.20711 94.2929 31
      vertex 4.42388 94.6173 31
    endloop
  endfacet
  facet normal 0 0 -1
    outer loop
      vertex 3.88268 65.9239 31
      vertex 4.20711 94.2929 31
      vertex 4.20711 65.7071 31
    endloop
  endfacet
  facet normal 0 0 -1
    outer loop
      vertex 3.88268 65.9239 31
      vertex 3.88268 94.0761 31
      vertex 4.20711 94.2929 31
    endloop
  endfacet
  facet normal 0 0 -1
    outer loop
      vertex 3.5 66 31
      vertex 3.88268 94.0761 31
      vertex 3.88268 65.9239 31
    endloop
  endfacet
  facet normal 0 0 -1
    outer loop
      vertex 3.5 66 31
      vertex 3.5 94 31
      vertex 3.88268 94.0761 31
    endloop
  endfacet
  facet normal 0 0 -1
    outer loop
      vertex 3.11732 65.9239 31
      vertex 3.5 94 31
      vertex 3.5 66 31
    endloop
  endfacet
  facet normal 0 0 -1
    outer loop
      vertex 3.11732 65.9239 31
      vertex 3.11732 94.0761 31
      vertex 3.5 94 31
    endloop
  endfacet
  facet normal 0 0 -1
    outer loop
      vertex 2.79289 65.7071 31
      vertex 3.11732 94.0761 31
      vertex 3.11732 65.9239 31
    endloop
  endfacet
  facet normal 0 0 -1
    outer loop
      vertex 2.79289 65.7071 31
      vertex 2.79289 94.2929 31
      vertex 3.11732 94.0761 31
    endloop
  endfacet
  facet normal 0 0 -1
    outer loop
      vertex 0 97.5 31
      vertex 2.79289 65.7071 31
      vertex 2.57612 65.3827 31
    endloop
  endfacet
  facet normal 0 0 -1
    outer loop
      vertex 2.79289 65.7071 31
      vertex 0 97.5 31
      vertex 2.79289 94.2929 31
    endloop
  endfacet
  facet normal 0 0 -1
    outer loop
      vertex 0 61.5 31
      vertex 2.57612 65.3827 31
      vertex 2.5 65 31
    endloop
  endfacet
  facet normal 0 0 -1
    outer loop
      vertex 2.79289 94.2929 31
      vertex 0 97.5 31
      vertex 2.57612 94.6173 31
    endloop
  endfacet
  facet normal 0 0 -1
    outer loop
      vertex 34.4239 65.3827 31
      vertex 34.5 95 31
      vertex 34.5 65 31
    endloop
  endfacet
  facet normal 0 0 -1
    outer loop
      vertex 34.4239 65.3827 31
      vertex 34.4239 94.6173 31
      vertex 34.5 95 31
    endloop
  endfacet
  facet normal 0 0 -1
    outer loop
      vertex 34.2071 65.7071 31
      vertex 34.4239 94.6173 31
      vertex 34.4239 65.3827 31
    endloop
  endfacet
  facet normal 0 0 -1
    outer loop
      vertex 34.2071 65.7071 31
      vertex 34.2071 94.2929 31
      vertex 34.4239 94.6173 31
    endloop
  endfacet
  facet normal 0 0 -1
    outer loop
      vertex 33.8827 65.9239 31
      vertex 34.2071 94.2929 31
      vertex 34.2071 65.7071 31
    endloop
  endfacet
  facet normal 0 0 -1
    outer loop
      vertex 33.8827 65.9239 31
      vertex 33.8827 94.0761 31
      vertex 34.2071 94.2929 31
    endloop
  endfacet
  facet normal 0 0 -1
    outer loop
      vertex 33.5 66 31
      vertex 33.8827 94.0761 31
      vertex 33.8827 65.9239 31
    endloop
  endfacet
  facet normal 0 0 -1
    outer loop
      vertex 33.5 66 31
      vertex 33.5 94 31
      vertex 33.8827 94.0761 31
    endloop
  endfacet
  facet normal 0 0 -1
    outer loop
      vertex 33.1173 65.9239 31
      vertex 33.5 94 31
      vertex 33.5 66 31
    endloop
  endfacet
  facet normal 0 0 -1
    outer loop
      vertex 33.1173 65.9239 31
      vertex 33.1173 94.0761 31
      vertex 33.5 94 31
    endloop
  endfacet
  facet normal 0 0 -1
    outer loop
      vertex 32.7929 65.7071 31
      vertex 33.1173 94.0761 31
      vertex 33.1173 65.9239 31
    endloop
  endfacet
  facet normal 0 0 -1
    outer loop
      vertex 32.7929 65.7071 31
      vertex 32.7929 94.2929 31
      vertex 33.1173 94.0761 31
    endloop
  endfacet
  facet normal 0 0 -1
    outer loop
      vertex 4.42388 65.3827 31
      vertex 32.5761 65.3827 31
      vertex 4.5 65 31
    endloop
  endfacet
  facet normal 0 0 -1
    outer loop
      vertex 32.5761 65.3827 31
      vertex 4.42388 65.3827 31
      vertex 32.7929 65.7071 31
    endloop
  endfacet
  facet normal 0 0 -1
    outer loop
      vertex 4.5 65 31
      vertex 32.5761 65.3827 31
      vertex 32.5 65 31
    endloop
  endfacet
  facet normal 0 0 -1
    outer loop
      vertex 4.20711 65.7071 31
      vertex 32.7929 65.7071 31
      vertex 4.42388 65.3827 31
    endloop
  endfacet
  facet normal 0 0 -1
    outer loop
      vertex 35 61.5 31
      vertex 34.5 65 31
      vertex 35 97.5 31
    endloop
  endfacet
  facet normal 0 0 -1
    outer loop
      vertex 35 61.5 31
      vertex 34.4239 64.6173 31
      vertex 34.5 65 31
    endloop
  endfacet
  facet normal 0 0 -1
    outer loop
      vertex 35 61.5 31
      vertex 34.2071 64.2929 31
      vertex 34.4239 64.6173 31
    endloop
  endfacet
  facet normal 0 0 -1
    outer loop
      vertex 35 61.5 31
      vertex 33.8827 64.0761 31
      vertex 34.2071 64.2929 31
    endloop
  endfacet
  facet normal 0 0 -1
    outer loop
      vertex 35 61.5 31
      vertex 33.5 64 31
      vertex 33.8827 64.0761 31
    endloop
  endfacet
  facet normal 0 0 -1
    outer loop
      vertex 35 61.5 31
      vertex 33.1173 64.0761 31
      vertex 33.5 64 31
    endloop
  endfacet
  facet normal 0 0 -1
    outer loop
      vertex 35 61.5 31
      vertex 32.7929 64.2929 31
      vertex 33.1173 64.0761 31
    endloop
  endfacet
  facet normal 0 0 -1
    outer loop
      vertex 32.7929 94.2929 31
      vertex 4.5 95 31
      vertex 32.5761 94.6173 31
    endloop
  endfacet
  facet normal 0 0 -1
    outer loop
      vertex 32.5761 64.6173 31
      vertex 4.5 65 31
      vertex 32.5 65 31
    endloop
  endfacet
  facet normal 0 0 -1
    outer loop
      vertex 4.42388 64.6173 31
      vertex 32.5761 64.6173 31
      vertex 32.7929 64.2929 31
    endloop
  endfacet
  facet normal 0 0 -1
    outer loop
      vertex 4.20711 64.2929 31
      vertex 32.7929 64.2929 31
      vertex 35 61.5 31
    endloop
  endfacet
  facet normal 0 0 -1
    outer loop
      vertex 32.5761 64.6173 31
      vertex 4.42388 64.6173 31
      vertex 4.5 65 31
    endloop
  endfacet
  facet normal 0 0 -1
    outer loop
      vertex 32.7929 64.2929 31
      vertex 4.20711 64.2929 31
      vertex 4.42388 64.6173 31
    endloop
  endfacet
  facet normal 0 0 -1
    outer loop
      vertex 35 61.5 31
      vertex 3.88268 64.0761 31
      vertex 4.20711 64.2929 31
    endloop
  endfacet
  facet normal 0 0 -1
    outer loop
      vertex 0 61.5 31
      vertex 3.88268 64.0761 31
      vertex 35 61.5 31
    endloop
  endfacet
  facet normal -0 0 -1
    outer loop
      vertex 2.57612 65.3827 31
      vertex 0 61.5 31
      vertex 0 97.5 31
    endloop
  endfacet
  facet normal -0 0 -1
    outer loop
      vertex 2.57612 64.6173 31
      vertex 0 61.5 31
      vertex 2.5 65 31
    endloop
  endfacet
  facet normal -0 0 -1
    outer loop
      vertex 2.79289 64.2929 31
      vertex 0 61.5 31
      vertex 2.57612 64.6173 31
    endloop
  endfacet
  facet normal -0 0 -1
    outer loop
      vertex 3.11732 64.0761 31
      vertex 0 61.5 31
      vertex 2.79289 64.2929 31
    endloop
  endfacet
  facet normal -0 0 -1
    outer loop
      vertex 3.5 64 31
      vertex 0 61.5 31
      vertex 3.11732 64.0761 31
    endloop
  endfacet
  facet normal 0 0 -1
    outer loop
      vertex 3.88268 64.0761 31
      vertex 0 61.5 31
      vertex 3.5 64 31
    endloop
  endfacet
  facet normal 0 0 -1
    outer loop
      vertex 34.5 95 31
      vertex 35 97.5 31
      vertex 34.5 65 31
    endloop
  endfacet
  facet normal 0 0 -1
    outer loop
      vertex 34.4239 95.3827 31
      vertex 35 97.5 31
      vertex 34.5 95 31
    endloop
  endfacet
  facet normal 0 0 -1
    outer loop
      vertex 34.2071 95.7071 31
      vertex 35 97.5 31
      vertex 34.4239 95.3827 31
    endloop
  endfacet
  facet normal 0 0 -1
    outer loop
      vertex 33.8827 95.9239 31
      vertex 35 97.5 31
      vertex 34.2071 95.7071 31
    endloop
  endfacet
  facet normal 0 0 -1
    outer loop
      vertex 33.5 96 31
      vertex 35 97.5 31
      vertex 33.8827 95.9239 31
    endloop
  endfacet
  facet normal 0 0 -1
    outer loop
      vertex 33.1173 95.9239 31
      vertex 35 97.5 31
      vertex 33.5 96 31
    endloop
  endfacet
  facet normal 0 0 -1
    outer loop
      vertex 32.7929 95.7071 31
      vertex 35 97.5 31
      vertex 33.1173 95.9239 31
    endloop
  endfacet
  facet normal 0 0 -1
    outer loop
      vertex 32.5761 94.6173 31
      vertex 4.5 95 31
      vertex 32.5 95 31
    endloop
  endfacet
  facet normal 0 0 -1
    outer loop
      vertex 32.5 95 31
      vertex 4.5 95 31
      vertex 32.5761 95.3827 31
    endloop
  endfacet
  facet normal 0 0 -1
    outer loop
      vertex 4.42388 95.3827 31
      vertex 32.5761 95.3827 31
      vertex 4.5 95 31
    endloop
  endfacet
  facet normal 0 0 -1
    outer loop
      vertex 32.5761 95.3827 31
      vertex 4.42388 95.3827 31
      vertex 32.7929 95.7071 31
    endloop
  endfacet
  facet normal 0 0 -1
    outer loop
      vertex 4.20711 95.7071 31
      vertex 32.7929 95.7071 31
      vertex 4.42388 95.3827 31
    endloop
  endfacet
  facet normal 0 0 -1
    outer loop
      vertex 32.7929 95.7071 31
      vertex 4.20711 95.7071 31
      vertex 35 97.5 31
    endloop
  endfacet
  facet normal 0 0 -1
    outer loop
      vertex 3.88268 95.9239 31
      vertex 35 97.5 31
      vertex 4.20711 95.7071 31
    endloop
  endfacet
  facet normal 0 0 -1
    outer loop
      vertex 0 97.5 31
      vertex 3.88268 95.9239 31
      vertex 3.5 96 31
    endloop
  endfacet
  facet normal 0 0 -1
    outer loop
      vertex 3.88268 95.9239 31
      vertex 0 97.5 31
      vertex 35 97.5 31
    endloop
  endfacet
  facet normal 0 0 -1
    outer loop
      vertex 3.11732 95.9239 31
      vertex 0 97.5 31
      vertex 3.5 96 31
    endloop
  endfacet
  facet normal 0 0 -1
    outer loop
      vertex 2.79289 95.7071 31
      vertex 0 97.5 31
      vertex 3.11732 95.9239 31
    endloop
  endfacet
  facet normal 0 0 -1
    outer loop
      vertex 2.57612 95.3827 31
      vertex 0 97.5 31
      vertex 2.79289 95.7071 31
    endloop
  endfacet
  facet normal 0 0 -1
    outer loop
      vertex 2.5 95 31
      vertex 0 97.5 31
      vertex 2.57612 95.3827 31
    endloop
  endfacet
  facet normal 0 0 -1
    outer loop
      vertex 2.57612 94.6173 31
      vertex 0 97.5 31
      vertex 2.5 95 31
    endloop
  endfacet
  facet normal 0 -1 0
    outer loop
      vertex 0 61.5 31
      vertex 6 61.5 33
      vertex 0 61.5 33
    endloop
  endfacet
  facet normal 0 -1 -0
    outer loop
      vertex 6 61.5 33
      vertex 0 61.5 31
      vertex 16 61.5 33
    endloop
  endfacet
  facet normal 0 -1 0
    outer loop
      vertex 35 61.5 31
      vertex 16 61.5 33
      vertex 0 61.5 31
    endloop
  endfacet
  facet normal 0 -1 0
    outer loop
      vertex 16 61.5 33
      vertex 35 61.5 31
      vertex 35 61.5 33
    endloop
  endfacet
  facet normal 0 -1 0
    outer loop
      vertex 6 61.5 33
      vertex 16 61.5 57
      vertex 6 61.5 57
    endloop
  endfacet
  facet normal 0 -1 -0
    outer loop
      vertex 16 61.5 57
      vertex 6 61.5 33
      vertex 16 61.5 33
    endloop
  endfacet
  facet normal 0 1 -0
    outer loop
      vertex 35 97.5 31
      vertex 16 97.5 33
      vertex 35 97.5 33
    endloop
  endfacet
  facet normal 0 1 0
    outer loop
      vertex 0 97.5 31
      vertex 16 97.5 33
      vertex 35 97.5 31
    endloop
  endfacet
  facet normal 0 1 0
    outer loop
      vertex 16 97.5 33
      vertex 0 97.5 31
      vertex 6 97.5 33
    endloop
  endfacet
  facet normal 0 1 0
    outer loop
      vertex 6 97.5 33
      vertex 0 97.5 31
      vertex 0 97.5 33
    endloop
  endfacet
  facet normal 0 1 -0
    outer loop
      vertex 16 97.5 33
      vertex 6 97.5 57
      vertex 16 97.5 57
    endloop
  endfacet
  facet normal 0 1 0
    outer loop
      vertex 6 97.5 57
      vertex 16 97.5 33
      vertex 6 97.5 33
    endloop
  endfacet
  facet normal -1 0 0
    outer loop
      vertex 6 97.5 33
      vertex 6 87.9 45
      vertex 6 97.5 57
    endloop
  endfacet
  facet normal -1 0 0
    outer loop
      vertex 6 97.5 33
      vertex 6 87.8596 44.1767
      vertex 6 87.9 45
    endloop
  endfacet
  facet normal -1 0 0
    outer loop
      vertex 6 97.5 33
      vertex 6 87.7386 43.3612
      vertex 6 87.8596 44.1767
    endloop
  endfacet
  facet normal -1 0 0
    outer loop
      vertex 6 97.5 33
      vertex 6 87.5383 42.5616
      vertex 6 87.7386 43.3612
    endloop
  endfacet
  facet normal -1 0 0
    outer loop
      vertex 6 97.5 33
      vertex 6 87.2606 41.7855
      vertex 6 87.5383 42.5616
    endloop
  endfacet
  facet normal -1 0 0
    outer loop
      vertex 6 97.5 33
      vertex 6 86.9081 41.0403
      vertex 6 87.2606 41.7855
    endloop
  endfacet
  facet normal -1 0 0
    outer loop
      vertex 6 97.5 33
      vertex 6 86.4843 40.3332
      vertex 6 86.9081 41.0403
    endloop
  endfacet
  facet normal -1 0 0
    outer loop
      vertex 6 97.5 33
      vertex 6 85.9933 39.6711
      vertex 6 86.4843 40.3332
    endloop
  endfacet
  facet normal -1 0 0
    outer loop
      vertex 6 97.5 33
      vertex 6 85.4397 39.0603
      vertex 6 85.9933 39.6711
    endloop
  endfacet
  facet normal -1 0 0
    outer loop
      vertex 6 97.5 33
      vertex 6 84.8289 38.5067
      vertex 6 85.4397 39.0603
    endloop
  endfacet
  facet normal -1 0 0
    outer loop
      vertex 6 97.5 33
      vertex 6 84.1668 38.0157
      vertex 6 84.8289 38.5067
    endloop
  endfacet
  facet normal -1 0 0
    outer loop
      vertex 6 97.5 33
      vertex 6 83.4597 37.5919
      vertex 6 84.1668 38.0157
    endloop
  endfacet
  facet normal -1 0 0
    outer loop
      vertex 6 97.5 33
      vertex 6 82.7145 37.2394
      vertex 6 83.4597 37.5919
    endloop
  endfacet
  facet normal -1 0 0
    outer loop
      vertex 6 97.5 33
      vertex 6 81.9384 36.9617
      vertex 6 82.7145 37.2394
    endloop
  endfacet
  facet normal -1 0 0
    outer loop
      vertex 6 97.5 33
      vertex 6 81.1388 36.7614
      vertex 6 81.9384 36.9617
    endloop
  endfacet
  facet normal -1 0 0
    outer loop
      vertex 6 97.5 33
      vertex 6 80.3233 36.6404
      vertex 6 81.1388 36.7614
    endloop
  endfacet
  facet normal -1 0 0
    outer loop
      vertex 6 97.5 33
      vertex 6 79.5 36.6
      vertex 6 80.3233 36.6404
    endloop
  endfacet
  facet normal -1 0 0
    outer loop
      vertex 6 61.5 33
      vertex 6 79.5 36.6
      vertex 6 97.5 33
    endloop
  endfacet
  facet normal -1 -0 0
    outer loop
      vertex 6 79.5 36.6
      vertex 6 61.5 33
      vertex 6 78.6767 36.6404
    endloop
  endfacet
  facet normal -1 -0 0
    outer loop
      vertex 6 71.1404 44.1767
      vertex 6 61.5 33
      vertex 6 71.1 45
    endloop
  endfacet
  facet normal -1 -0 0
    outer loop
      vertex 6 71.2614 43.3612
      vertex 6 61.5 33
      vertex 6 71.1404 44.1767
    endloop
  endfacet
  facet normal -1 -0 0
    outer loop
      vertex 6 71.4617 42.5616
      vertex 6 61.5 33
      vertex 6 71.2614 43.3612
    endloop
  endfacet
  facet normal -1 -0 0
    outer loop
      vertex 6 71.7394 41.7855
      vertex 6 61.5 33
      vertex 6 71.4617 42.5616
    endloop
  endfacet
  facet normal -1 -0 0
    outer loop
      vertex 6 72.0919 41.0403
      vertex 6 61.5 33
      vertex 6 71.7394 41.7855
    endloop
  endfacet
  facet normal -1 -0 0
    outer loop
      vertex 6 72.5157 40.3332
      vertex 6 61.5 33
      vertex 6 72.0919 41.0403
    endloop
  endfacet
  facet normal -1 -0 0
    outer loop
      vertex 6 73.0067 39.6711
      vertex 6 61.5 33
      vertex 6 72.5157 40.3332
    endloop
  endfacet
  facet normal -1 -0 0
    outer loop
      vertex 6 73.5603 39.0603
      vertex 6 61.5 33
      vertex 6 73.0067 39.6711
    endloop
  endfacet
  facet normal -1 -0 0
    outer loop
      vertex 6 74.1711 38.5067
      vertex 6 61.5 33
      vertex 6 73.5603 39.0603
    endloop
  endfacet
  facet normal -1 -0 0
    outer loop
      vertex 6 74.8332 38.0157
      vertex 6 61.5 33
      vertex 6 74.1711 38.5067
    endloop
  endfacet
  facet normal -1 -0 0
    outer loop
      vertex 6 75.5403 37.5919
      vertex 6 61.5 33
      vertex 6 74.8332 38.0157
    endloop
  endfacet
  facet normal -1 -0 0
    outer loop
      vertex 6 76.2855 37.2394
      vertex 6 61.5 33
      vertex 6 75.5403 37.5919
    endloop
  endfacet
  facet normal -1 -0 0
    outer loop
      vertex 6 77.0616 36.9617
      vertex 6 61.5 33
      vertex 6 76.2855 37.2394
    endloop
  endfacet
  facet normal -1 -0 0
    outer loop
      vertex 6 77.8612 36.7614
      vertex 6 61.5 33
      vertex 6 77.0616 36.9617
    endloop
  endfacet
  facet normal -1 -0 0
    outer loop
      vertex 6 78.6767 36.6404
      vertex 6 61.5 33
      vertex 6 77.8612 36.7614
    endloop
  endfacet
  facet normal -1 0 0
    outer loop
      vertex 6 87.8596 45.8233
      vertex 6 97.5 57
      vertex 6 87.9 45
    endloop
  endfacet
  facet normal -1 0 0
    outer loop
      vertex 6 87.7386 46.6388
      vertex 6 97.5 57
      vertex 6 87.8596 45.8233
    endloop
  endfacet
  facet normal -1 0 0
    outer loop
      vertex 6 87.5383 47.4384
      vertex 6 97.5 57
      vertex 6 87.7386 46.6388
    endloop
  endfacet
  facet normal -1 0 0
    outer loop
      vertex 6 87.2606 48.2145
      vertex 6 97.5 57
      vertex 6 87.5383 47.4384
    endloop
  endfacet
  facet normal -1 0 0
    outer loop
      vertex 6 86.9081 48.9597
      vertex 6 97.5 57
      vertex 6 87.2606 48.2145
    endloop
  endfacet
  facet normal -1 0 0
    outer loop
      vertex 6 86.4843 49.6668
      vertex 6 97.5 57
      vertex 6 86.9081 48.9597
    endloop
  endfacet
  facet normal -1 0 0
    outer loop
      vertex 6 85.9933 50.3289
      vertex 6 97.5 57
      vertex 6 86.4843 49.6668
    endloop
  endfacet
  facet normal -1 0 0
    outer loop
      vertex 6 85.4397 50.9397
      vertex 6 97.5 57
      vertex 6 85.9933 50.3289
    endloop
  endfacet
  facet normal -1 0 0
    outer loop
      vertex 6 84.8289 51.4933
      vertex 6 97.5 57
      vertex 6 85.4397 50.9397
    endloop
  endfacet
  facet normal -1 0 0
    outer loop
      vertex 6 84.1668 51.9843
      vertex 6 97.5 57
      vertex 6 84.8289 51.4933
    endloop
  endfacet
  facet normal -1 0 0
    outer loop
      vertex 6 83.4597 52.4081
      vertex 6 97.5 57
      vertex 6 84.1668 51.9843
    endloop
  endfacet
  facet normal -1 0 0
    outer loop
      vertex 6 82.7145 52.7606
      vertex 6 97.5 57
      vertex 6 83.4597 52.4081
    endloop
  endfacet
  facet normal -1 0 0
    outer loop
      vertex 6 81.9384 53.0383
      vertex 6 97.5 57
      vertex 6 82.7145 52.7606
    endloop
  endfacet
  facet normal -1 0 0
    outer loop
      vertex 6 81.1388 53.2386
      vertex 6 97.5 57
      vertex 6 81.9384 53.0383
    endloop
  endfacet
  facet normal -1 0 0
    outer loop
      vertex 6 80.3233 53.3596
      vertex 6 97.5 57
      vertex 6 81.1388 53.2386
    endloop
  endfacet
  facet normal -1 0 0
    outer loop
      vertex 6 79.5 53.4
      vertex 6 97.5 57
      vertex 6 80.3233 53.3596
    endloop
  endfacet
  facet normal -1 0 0
    outer loop
      vertex 6 61.5 57
      vertex 6 79.5 53.4
      vertex 6 78.6767 53.3596
    endloop
  endfacet
  facet normal -1 0 0
    outer loop
      vertex 6 61.5 57
      vertex 6 78.6767 53.3596
      vertex 6 77.8612 53.2386
    endloop
  endfacet
  facet normal -1 0 0
    outer loop
      vertex 6 61.5 57
      vertex 6 71.1 45
      vertex 6 61.5 33
    endloop
  endfacet
  facet normal -1 0 0
    outer loop
      vertex 6 71.1 45
      vertex 6 61.5 57
      vertex 6 71.1404 45.8233
    endloop
  endfacet
  facet normal -1 0 0
    outer loop
      vertex 6 71.1404 45.8233
      vertex 6 61.5 57
      vertex 6 71.2614 46.6388
    endloop
  endfacet
  facet normal -1 0 0
    outer loop
      vertex 6 71.2614 46.6388
      vertex 6 61.5 57
      vertex 6 71.4617 47.4384
    endloop
  endfacet
  facet normal -1 0 0
    outer loop
      vertex 6 71.4617 47.4384
      vertex 6 61.5 57
      vertex 6 71.7394 48.2145
    endloop
  endfacet
  facet normal -1 0 0
    outer loop
      vertex 6 71.7394 48.2145
      vertex 6 61.5 57
      vertex 6 72.0919 48.9597
    endloop
  endfacet
  facet normal -1 0 0
    outer loop
      vertex 6 79.5 53.4
      vertex 6 61.5 57
      vertex 6 97.5 57
    endloop
  endfacet
  facet normal -1 0 0
    outer loop
      vertex 6 77.0616 53.0383
      vertex 6 61.5 57
      vertex 6 77.8612 53.2386
    endloop
  endfacet
  facet normal -1 0 0
    outer loop
      vertex 6 76.2855 52.7606
      vertex 6 61.5 57
      vertex 6 77.0616 53.0383
    endloop
  endfacet
  facet normal -1 0 0
    outer loop
      vertex 6 75.5403 52.4081
      vertex 6 61.5 57
      vertex 6 76.2855 52.7606
    endloop
  endfacet
  facet normal -1 0 0
    outer loop
      vertex 6 74.8332 51.9843
      vertex 6 61.5 57
      vertex 6 75.5403 52.4081
    endloop
  endfacet
  facet normal -1 0 0
    outer loop
      vertex 6 74.1711 51.4933
      vertex 6 61.5 57
      vertex 6 74.8332 51.9843
    endloop
  endfacet
  facet normal -1 0 0
    outer loop
      vertex 6 73.5603 50.9397
      vertex 6 61.5 57
      vertex 6 74.1711 51.4933
    endloop
  endfacet
  facet normal -1 0 0
    outer loop
      vertex 6 73.0067 50.3289
      vertex 6 61.5 57
      vertex 6 73.5603 50.9397
    endloop
  endfacet
  facet normal -1 0 0
    outer loop
      vertex 6 72.5157 49.6668
      vertex 6 61.5 57
      vertex 6 73.0067 50.3289
    endloop
  endfacet
  facet normal -1 0 0
    outer loop
      vertex 6 72.0919 48.9597
      vertex 6 61.5 57
      vertex 6 72.5157 49.6668
    endloop
  endfacet
  facet normal 0 0 1
    outer loop
      vertex 16 97.5 57
      vertex 8 95.5 57
      vertex 16 95.5 57
    endloop
  endfacet
  facet normal 0 0 1
    outer loop
      vertex 8 95.5 57
      vertex 6 97.5 57
      vertex 8 63.5 57
    endloop
  endfacet
  facet normal -0 0 1
    outer loop
      vertex 6 97.5 57
      vertex 8 95.5 57
      vertex 16 97.5 57
    endloop
  endfacet
  facet normal -0 0 1
    outer loop
      vertex 8 63.5 57
      vertex 16 61.5 57
      vertex 16 63.5 57
    endloop
  endfacet
  facet normal 0 0 1
    outer loop
      vertex 8 63.5 57
      vertex 6 61.5 57
      vertex 16 61.5 57
    endloop
  endfacet
  facet normal 0 0 1
    outer loop
      vertex 6 61.5 57
      vertex 8 63.5 57
      vertex 6 97.5 57
    endloop
  endfacet
  facet normal 1 0 0
    outer loop
      vertex 8 95.5 57
      vertex 8 87.9 45
      vertex 8 95.5 33
    endloop
  endfacet
  facet normal 1 0 0
    outer loop
      vertex 8 95.5 57
      vertex 8 87.8596 45.8233
      vertex 8 87.9 45
    endloop
  endfacet
  facet normal 1 0 0
    outer loop
      vertex 8 95.5 57
      vertex 8 87.7386 46.6388
      vertex 8 87.8596 45.8233
    endloop
  endfacet
  facet normal 1 0 0
    outer loop
      vertex 8 95.5 57
      vertex 8 87.5383 47.4384
      vertex 8 87.7386 46.6388
    endloop
  endfacet
  facet normal 1 0 0
    outer loop
      vertex 8 95.5 57
      vertex 8 87.2606 48.2145
      vertex 8 87.5383 47.4384
    endloop
  endfacet
  facet normal 1 0 0
    outer loop
      vertex 8 95.5 57
      vertex 8 86.9081 48.9597
      vertex 8 87.2606 48.2145
    endloop
  endfacet
  facet normal 1 0 0
    outer loop
      vertex 8 95.5 57
      vertex 8 86.4843 49.6668
      vertex 8 86.9081 48.9597
    endloop
  endfacet
  facet normal 1 0 0
    outer loop
      vertex 8 95.5 57
      vertex 8 85.9933 50.3289
      vertex 8 86.4843 49.6668
    endloop
  endfacet
  facet normal 1 0 0
    outer loop
      vertex 8 95.5 57
      vertex 8 85.4397 50.9397
      vertex 8 85.9933 50.3289
    endloop
  endfacet
  facet normal 1 0 0
    outer loop
      vertex 8 95.5 57
      vertex 8 84.8289 51.4933
      vertex 8 85.4397 50.9397
    endloop
  endfacet
  facet normal 1 0 0
    outer loop
      vertex 8 95.5 57
      vertex 8 84.1668 51.9843
      vertex 8 84.8289 51.4933
    endloop
  endfacet
  facet normal 1 0 0
    outer loop
      vertex 8 95.5 57
      vertex 8 83.4597 52.4081
      vertex 8 84.1668 51.9843
    endloop
  endfacet
  facet normal 1 0 0
    outer loop
      vertex 8 95.5 57
      vertex 8 82.7145 52.7606
      vertex 8 83.4597 52.4081
    endloop
  endfacet
  facet normal 1 0 0
    outer loop
      vertex 8 95.5 57
      vertex 8 81.9384 53.0383
      vertex 8 82.7145 52.7606
    endloop
  endfacet
  facet normal 1 0 0
    outer loop
      vertex 8 95.5 57
      vertex 8 81.1388 53.2386
      vertex 8 81.9384 53.0383
    endloop
  endfacet
  facet normal 1 0 0
    outer loop
      vertex 8 95.5 57
      vertex 8 80.3233 53.3596
      vertex 8 81.1388 53.2386
    endloop
  endfacet
  facet normal 1 0 0
    outer loop
      vertex 8 95.5 57
      vertex 8 79.5 53.4
      vertex 8 80.3233 53.3596
    endloop
  endfacet
  facet normal 1 -0 0
    outer loop
      vertex 8 63.5 57
      vertex 8 79.5 53.4
      vertex 8 95.5 57
    endloop
  endfacet
  facet normal 1 0 0
    outer loop
      vertex 8 79.5 53.4
      vertex 8 63.5 57
      vertex 8 78.6767 53.3596
    endloop
  endfacet
  facet normal 1 0 0
    outer loop
      vertex 8 71.1404 45.8233
      vertex 8 63.5 57
      vertex 8 71.1 45
    endloop
  endfacet
  facet normal 1 0 0
    outer loop
      vertex 8 71.2614 46.6388
      vertex 8 63.5 57
      vertex 8 71.1404 45.8233
    endloop
  endfacet
  facet normal 1 0 0
    outer loop
      vertex 8 71.4617 47.4384
      vertex 8 63.5 57
      vertex 8 71.2614 46.6388
    endloop
  endfacet
  facet normal 1 0 0
    outer loop
      vertex 8 71.7394 48.2145
      vertex 8 63.5 57
      vertex 8 71.4617 47.4384
    endloop
  endfacet
  facet normal 1 0 0
    outer loop
      vertex 8 72.0919 48.9597
      vertex 8 63.5 57
      vertex 8 71.7394 48.2145
    endloop
  endfacet
  facet normal 1 0 0
    outer loop
      vertex 8 72.5157 49.6668
      vertex 8 63.5 57
      vertex 8 72.0919 48.9597
    endloop
  endfacet
  facet normal 1 0 0
    outer loop
      vertex 8 73.0067 50.3289
      vertex 8 63.5 57
      vertex 8 72.5157 49.6668
    endloop
  endfacet
  facet normal 1 0 0
    outer loop
      vertex 8 73.5603 50.9397
      vertex 8 63.5 57
      vertex 8 73.0067 50.3289
    endloop
  endfacet
  facet normal 1 0 0
    outer loop
      vertex 8 74.1711 51.4933
      vertex 8 63.5 57
      vertex 8 73.5603 50.9397
    endloop
  endfacet
  facet normal 1 0 0
    outer loop
      vertex 8 74.8332 51.9843
      vertex 8 63.5 57
      vertex 8 74.1711 51.4933
    endloop
  endfacet
  facet normal 1 0 0
    outer loop
      vertex 8 75.5403 52.4081
      vertex 8 63.5 57
      vertex 8 74.8332 51.9843
    endloop
  endfacet
  facet normal 1 0 0
    outer loop
      vertex 8 76.2855 52.7606
      vertex 8 63.5 57
      vertex 8 75.5403 52.4081
    endloop
  endfacet
  facet normal 1 0 0
    outer loop
      vertex 8 77.0616 53.0383
      vertex 8 63.5 57
      vertex 8 76.2855 52.7606
    endloop
  endfacet
  facet normal 1 0 0
    outer loop
      vertex 8 77.8612 53.2386
      vertex 8 63.5 57
      vertex 8 77.0616 53.0383
    endloop
  endfacet
  facet normal 1 0 0
    outer loop
      vertex 8 78.6767 53.3596
      vertex 8 63.5 57
      vertex 8 77.8612 53.2386
    endloop
  endfacet
  facet normal 1 -0 0
    outer loop
      vertex 8 87.8596 44.1767
      vertex 8 95.5 33
      vertex 8 87.9 45
    endloop
  endfacet
  facet normal 1 -0 0
    outer loop
      vertex 8 87.7386 43.3612
      vertex 8 95.5 33
      vertex 8 87.8596 44.1767
    endloop
  endfacet
  facet normal 1 -0 0
    outer loop
      vertex 8 87.5383 42.5616
      vertex 8 95.5 33
      vertex 8 87.7386 43.3612
    endloop
  endfacet
  facet normal 1 -0 0
    outer loop
      vertex 8 87.2606 41.7855
      vertex 8 95.5 33
      vertex 8 87.5383 42.5616
    endloop
  endfacet
  facet normal 1 -0 0
    outer loop
      vertex 8 86.9081 41.0403
      vertex 8 95.5 33
      vertex 8 87.2606 41.7855
    endloop
  endfacet
  facet normal 1 -0 0
    outer loop
      vertex 8 86.4843 40.3332
      vertex 8 95.5 33
      vertex 8 86.9081 41.0403
    endloop
  endfacet
  facet normal 1 -0 0
    outer loop
      vertex 8 85.9933 39.6711
      vertex 8 95.5 33
      vertex 8 86.4843 40.3332
    endloop
  endfacet
  facet normal 1 -0 0
    outer loop
      vertex 8 85.4397 39.0603
      vertex 8 95.5 33
      vertex 8 85.9933 39.6711
    endloop
  endfacet
  facet normal 1 -0 0
    outer loop
      vertex 8 84.8289 38.5067
      vertex 8 95.5 33
      vertex 8 85.4397 39.0603
    endloop
  endfacet
  facet normal 1 -0 0
    outer loop
      vertex 8 84.1668 38.0157
      vertex 8 95.5 33
      vertex 8 84.8289 38.5067
    endloop
  endfacet
  facet normal 1 -0 0
    outer loop
      vertex 8 83.4597 37.5919
      vertex 8 95.5 33
      vertex 8 84.1668 38.0157
    endloop
  endfacet
  facet normal 1 -0 0
    outer loop
      vertex 8 82.7145 37.2394
      vertex 8 95.5 33
      vertex 8 83.4597 37.5919
    endloop
  endfacet
  facet normal 1 -0 0
    outer loop
      vertex 8 81.9384 36.9617
      vertex 8 95.5 33
      vertex 8 82.7145 37.2394
    endloop
  endfacet
  facet normal 1 -0 0
    outer loop
      vertex 8 81.1388 36.7614
      vertex 8 95.5 33
      vertex 8 81.9384 36.9617
    endloop
  endfacet
  facet normal 1 -0 0
    outer loop
      vertex 8 80.3233 36.6404
      vertex 8 95.5 33
      vertex 8 81.1388 36.7614
    endloop
  endfacet
  facet normal 1 -0 0
    outer loop
      vertex 8 79.5 36.6
      vertex 8 95.5 33
      vertex 8 80.3233 36.6404
    endloop
  endfacet
  facet normal 1 0 0
    outer loop
      vertex 8 63.5 33
      vertex 8 79.5 36.6
      vertex 8 78.6767 36.6404
    endloop
  endfacet
  facet normal 1 0 0
    outer loop
      vertex 8 63.5 33
      vertex 8 78.6767 36.6404
      vertex 8 77.8612 36.7614
    endloop
  endfacet
  facet normal 1 0 0
    outer loop
      vertex 8 63.5 33
      vertex 8 71.1 45
      vertex 8 63.5 57
    endloop
  endfacet
  facet normal 1 0 0
    outer loop
      vertex 8 71.1 45
      vertex 8 63.5 33
      vertex 8 71.1404 44.1767
    endloop
  endfacet
  facet normal 1 0 0
    outer loop
      vertex 8 71.1404 44.1767
      vertex 8 63.5 33
      vertex 8 71.2614 43.3612
    endloop
  endfacet
  facet normal 1 0 0
    outer loop
      vertex 8 71.2614 43.3612
      vertex 8 63.5 33
      vertex 8 71.4617 42.5616
    endloop
  endfacet
  facet normal 1 0 0
    outer loop
      vertex 8 71.4617 42.5616
      vertex 8 63.5 33
      vertex 8 71.7394 41.7855
    endloop
  endfacet
  facet normal 1 0 0
    outer loop
      vertex 8 79.5 36.6
      vertex 8 63.5 33
      vertex 8 95.5 33
    endloop
  endfacet
  facet normal 1 0 0
    outer loop
      vertex 8 77.0616 36.9617
      vertex 8 63.5 33
      vertex 8 77.8612 36.7614
    endloop
  endfacet
  facet normal 1 0 0
    outer loop
      vertex 8 76.2855 37.2394
      vertex 8 63.5 33
      vertex 8 77.0616 36.9617
    endloop
  endfacet
  facet normal 1 0 0
    outer loop
      vertex 8 75.5403 37.5919
      vertex 8 63.5 33
      vertex 8 76.2855 37.2394
    endloop
  endfacet
  facet normal 1 0 0
    outer loop
      vertex 8 74.8332 38.0157
      vertex 8 63.5 33
      vertex 8 75.5403 37.5919
    endloop
  endfacet
  facet normal 1 0 0
    outer loop
      vertex 8 74.1711 38.5067
      vertex 8 63.5 33
      vertex 8 74.8332 38.0157
    endloop
  endfacet
  facet normal 1 0 0
    outer loop
      vertex 8 73.5603 39.0603
      vertex 8 63.5 33
      vertex 8 74.1711 38.5067
    endloop
  endfacet
  facet normal 1 0 0
    outer loop
      vertex 8 73.0067 39.6711
      vertex 8 63.5 33
      vertex 8 73.5603 39.0603
    endloop
  endfacet
  facet normal 1 0 0
    outer loop
      vertex 8 72.5157 40.3332
      vertex 8 63.5 33
      vertex 8 73.0067 39.6711
    endloop
  endfacet
  facet normal 1 0 0
    outer loop
      vertex 8 72.0919 41.0403
      vertex 8 63.5 33
      vertex 8 72.5157 40.3332
    endloop
  endfacet
  facet normal 1 0 0
    outer loop
      vertex 8 71.7394 41.7855
      vertex 8 63.5 33
      vertex 8 72.0919 41.0403
    endloop
  endfacet
  facet normal 1 -0 0
    outer loop
      vertex 16 61.5 57
      vertex 16 63.5 33
      vertex 16 63.5 57
    endloop
  endfacet
  facet normal 1 0 0
    outer loop
      vertex 16 63.5 33
      vertex 16 61.5 57
      vertex 16 61.5 33
    endloop
  endfacet
  facet normal 0 1 -0
    outer loop
      vertex 16 63.5 33
      vertex 8 63.5 57
      vertex 16 63.5 57
    endloop
  endfacet
  facet normal 0 1 0
    outer loop
      vertex 8 63.5 57
      vertex 16 63.5 33
      vertex 8 63.5 33
    endloop
  endfacet
  facet normal 1 -0 0
    outer loop
      vertex 16 95.5 57
      vertex 16 97.5 33
      vertex 16 97.5 57
    endloop
  endfacet
  facet normal 1 0 0
    outer loop
      vertex 16 97.5 33
      vertex 16 95.5 57
      vertex 16 95.5 33
    endloop
  endfacet
  facet normal 0 -1 0
    outer loop
      vertex 8 95.5 33
      vertex 16 95.5 57
      vertex 8 95.5 57
    endloop
  endfacet
  facet normal 0 -1 -0
    outer loop
      vertex 16 95.5 57
      vertex 8 95.5 33
      vertex 16 95.5 33
    endloop
  endfacet
  facet normal 0 -0.0490712 0.998795
    outer loop
      vertex 6 80.3233 36.6404
      vertex 8 79.5 36.6
      vertex 8 80.3233 36.6404
    endloop
  endfacet
  facet normal 0 -0.0490712 0.998795
    outer loop
      vertex 8 79.5 36.6
      vertex 6 80.3233 36.6404
      vertex 6 79.5 36.6
    endloop
  endfacet
  facet normal 0 0.0490712 -0.998795
    outer loop
      vertex 6 78.6767 53.3596
      vertex 8 79.5 53.4
      vertex 8 78.6767 53.3596
    endloop
  endfacet
  facet normal 0 0.0490712 -0.998795
    outer loop
      vertex 8 79.5 53.4
      vertex 6 78.6767 53.3596
      vertex 6 79.5 53.4
    endloop
  endfacet
  facet normal 0 -0.998795 -0.0490712
    outer loop
      vertex 6 87.9 45
      vertex 8 87.8596 45.8233
      vertex 6 87.8596 45.8233
    endloop
  endfacet
  facet normal 0 -0.998795 -0.0490712
    outer loop
      vertex 8 87.8596 45.8233
      vertex 6 87.9 45
      vertex 8 87.9 45
    endloop
  endfacet
  facet normal 0 0.740953 0.671557
    outer loop
      vertex 8 73.5603 39.0603
      vertex 6 73.0067 39.6711
      vertex 8 73.0067 39.6711
    endloop
  endfacet
  facet normal 0 0.740953 0.671557
    outer loop
      vertex 6 73.0067 39.6711
      vertex 8 73.5603 39.0603
      vertex 6 73.5603 39.0603
    endloop
  endfacet
  facet normal 0 -0.671557 -0.740953
    outer loop
      vertex 6 84.8289 51.4933
      vertex 8 85.4397 50.9397
      vertex 8 84.8289 51.4933
    endloop
  endfacet
  facet normal -0 -0.671557 -0.740953
    outer loop
      vertex 8 85.4397 50.9397
      vertex 6 84.8289 51.4933
      vertex 6 85.4397 50.9397
    endloop
  endfacet
  facet normal -0 0.427556 0.903989
    outer loop
      vertex 6 76.2855 37.2394
      vertex 8 75.5403 37.5919
      vertex 8 76.2855 37.2394
    endloop
  endfacet
  facet normal 0 0.427556 0.903989
    outer loop
      vertex 8 75.5403 37.5919
      vertex 6 76.2855 37.2394
      vertex 6 75.5403 37.5919
    endloop
  endfacet
  facet normal 0 0.740953 -0.671557
    outer loop
      vertex 8 73.0067 50.3289
      vertex 6 73.5603 50.9397
      vertex 8 73.5603 50.9397
    endloop
  endfacet
  facet normal 0 0.740953 -0.671557
    outer loop
      vertex 6 73.5603 50.9397
      vertex 8 73.0067 50.3289
      vertex 6 73.0067 50.3289
    endloop
  endfacet
  facet normal 0 -0.595698 0.803208
    outer loop
      vertex 6 84.8289 38.5067
      vertex 8 84.1668 38.0157
      vertex 8 84.8289 38.5067
    endloop
  endfacet
  facet normal 0 -0.595698 0.803208
    outer loop
      vertex 8 84.1668 38.0157
      vertex 6 84.8289 38.5067
      vertex 6 84.1668 38.0157
    endloop
  endfacet
  facet normal 0 -0.941544 0.336889
    outer loop
      vertex 6 87.2606 41.7855
      vertex 8 87.5383 42.5616
      vertex 6 87.5383 42.5616
    endloop
  endfacet
  facet normal 0 -0.941544 0.336889
    outer loop
      vertex 8 87.5383 42.5616
      vertex 6 87.2606 41.7855
      vertex 8 87.2606 41.7855
    endloop
  endfacet
  facet normal 0 -0.989176 0.146732
    outer loop
      vertex 6 87.7386 43.3612
      vertex 8 87.8596 44.1767
      vertex 6 87.8596 44.1767
    endloop
  endfacet
  facet normal 0 -0.989176 0.146732
    outer loop
      vertex 8 87.8596 44.1767
      vertex 6 87.7386 43.3612
      vertex 8 87.7386 43.3612
    endloop
  endfacet
  facet normal 0 0.803207 0.595701
    outer loop
      vertex 8 73.0067 39.6711
      vertex 6 72.5157 40.3332
      vertex 8 72.5157 40.3332
    endloop
  endfacet
  facet normal 0 0.803207 0.595701
    outer loop
      vertex 6 72.5157 40.3332
      vertex 8 73.0067 39.6711
      vertex 6 73.0067 39.6711
    endloop
  endfacet
  facet normal 0 -0.33689 0.941544
    outer loop
      vertex 6 82.7145 37.2394
      vertex 8 81.9384 36.9617
      vertex 8 82.7145 37.2394
    endloop
  endfacet
  facet normal 0 -0.33689 0.941544
    outer loop
      vertex 8 81.9384 36.9617
      vertex 6 82.7145 37.2394
      vertex 6 81.9384 36.9617
    endloop
  endfacet
  facet normal 0 -0.146727 0.989177
    outer loop
      vertex 6 81.1388 36.7614
      vertex 8 80.3233 36.6404
      vertex 8 81.1388 36.7614
    endloop
  endfacet
  facet normal 0 -0.146727 0.989177
    outer loop
      vertex 8 80.3233 36.6404
      vertex 6 81.1388 36.7614
      vertex 6 80.3233 36.6404
    endloop
  endfacet
  facet normal 0 -0.671557 0.740953
    outer loop
      vertex 6 85.4397 39.0603
      vertex 8 84.8289 38.5067
      vertex 8 85.4397 39.0603
    endloop
  endfacet
  facet normal 0 -0.671557 0.740953
    outer loop
      vertex 8 84.8289 38.5067
      vertex 6 85.4397 39.0603
      vertex 6 84.8289 38.5067
    endloop
  endfacet
  facet normal 0 -0.514104 0.857728
    outer loop
      vertex 6 84.1668 38.0157
      vertex 8 83.4597 37.5919
      vertex 8 84.1668 38.0157
    endloop
  endfacet
  facet normal 0 -0.514104 0.857728
    outer loop
      vertex 8 83.4597 37.5919
      vertex 6 84.1668 38.0157
      vertex 6 83.4597 37.5919
    endloop
  endfacet
  facet normal 0 -0.970032 0.242977
    outer loop
      vertex 6 87.5383 42.5616
      vertex 8 87.7386 43.3612
      vertex 6 87.7386 43.3612
    endloop
  endfacet
  facet normal 0 -0.970032 0.242977
    outer loop
      vertex 8 87.7386 43.3612
      vertex 6 87.5383 42.5616
      vertex 8 87.5383 42.5616
    endloop
  endfacet
  facet normal 0 -0.998795 0.0490709
    outer loop
      vertex 6 87.8596 44.1767
      vertex 8 87.9 45
      vertex 6 87.9 45
    endloop
  endfacet
  facet normal 0 -0.998795 0.0490709
    outer loop
      vertex 8 87.9 45
      vertex 6 87.8596 44.1767
      vertex 8 87.8596 44.1767
    endloop
  endfacet
  facet normal 0 -0.90399 0.427554
    outer loop
      vertex 6 86.9081 41.0403
      vertex 8 87.2606 41.7855
      vertex 6 87.2606 41.7855
    endloop
  endfacet
  facet normal 0 -0.90399 0.427554
    outer loop
      vertex 8 87.2606 41.7855
      vertex 6 86.9081 41.0403
      vertex 8 86.9081 41.0403
    endloop
  endfacet
  facet normal 0 -0.803207 0.595701
    outer loop
      vertex 6 85.9933 39.6711
      vertex 8 86.4843 40.3332
      vertex 6 86.4843 40.3332
    endloop
  endfacet
  facet normal 0 -0.803207 0.595701
    outer loop
      vertex 8 86.4843 40.3332
      vertex 6 85.9933 39.6711
      vertex 8 85.9933 39.6711
    endloop
  endfacet
  facet normal 0 -0.242975 -0.970032
    outer loop
      vertex 6 81.1388 53.2386
      vertex 8 81.9384 53.0383
      vertex 8 81.1388 53.2386
    endloop
  endfacet
  facet normal -0 -0.242975 -0.970032
    outer loop
      vertex 8 81.9384 53.0383
      vertex 6 81.1388 53.2386
      vertex 6 81.9384 53.0383
    endloop
  endfacet
  facet normal 0 -0.514104 -0.857728
    outer loop
      vertex 6 83.4597 52.4081
      vertex 8 84.1668 51.9843
      vertex 8 83.4597 52.4081
    endloop
  endfacet
  facet normal -0 -0.514104 -0.857728
    outer loop
      vertex 8 84.1668 51.9843
      vertex 6 83.4597 52.4081
      vertex 6 84.1668 51.9843
    endloop
  endfacet
  facet normal 0 -0.595698 -0.803208
    outer loop
      vertex 6 84.1668 51.9843
      vertex 8 84.8289 51.4933
      vertex 8 84.1668 51.9843
    endloop
  endfacet
  facet normal -0 -0.595698 -0.803208
    outer loop
      vertex 8 84.8289 51.4933
      vertex 6 84.1668 51.9843
      vertex 6 84.8289 51.4933
    endloop
  endfacet
  facet normal 0 -0.970032 -0.242977
    outer loop
      vertex 6 87.7386 46.6388
      vertex 8 87.5383 47.4384
      vertex 6 87.5383 47.4384
    endloop
  endfacet
  facet normal 0 -0.970032 -0.242977
    outer loop
      vertex 8 87.5383 47.4384
      vertex 6 87.7386 46.6388
      vertex 8 87.7386 46.6388
    endloop
  endfacet
  facet normal 0 -0.941544 -0.33689
    outer loop
      vertex 6 87.5383 47.4384
      vertex 8 87.2606 48.2145
      vertex 6 87.2606 48.2145
    endloop
  endfacet
  facet normal 0 -0.941544 -0.33689
    outer loop
      vertex 8 87.2606 48.2145
      vertex 6 87.5383 47.4384
      vertex 8 87.5383 47.4384
    endloop
  endfacet
  facet normal 0 -0.989176 -0.146731
    outer loop
      vertex 6 87.8596 45.8233
      vertex 8 87.7386 46.6388
      vertex 6 87.7386 46.6388
    endloop
  endfacet
  facet normal 0 -0.989176 -0.146731
    outer loop
      vertex 8 87.7386 46.6388
      vertex 6 87.8596 45.8233
      vertex 8 87.8596 45.8233
    endloop
  endfacet
  facet normal -0 0.671557 0.740953
    outer loop
      vertex 6 74.1711 38.5067
      vertex 8 73.5603 39.0603
      vertex 8 74.1711 38.5067
    endloop
  endfacet
  facet normal 0 0.671557 0.740953
    outer loop
      vertex 8 73.5603 39.0603
      vertex 6 74.1711 38.5067
      vertex 6 73.5603 39.0603
    endloop
  endfacet
  facet normal 0 0.998795 -0.0490712
    outer loop
      vertex 8 71.1 45
      vertex 6 71.1404 45.8233
      vertex 8 71.1404 45.8233
    endloop
  endfacet
  facet normal 0 0.998795 -0.0490712
    outer loop
      vertex 6 71.1404 45.8233
      vertex 8 71.1 45
      vertex 6 71.1 45
    endloop
  endfacet
  facet normal 0 0.595703 -0.803205
    outer loop
      vertex 6 74.1711 51.4933
      vertex 8 74.8332 51.9843
      vertex 8 74.1711 51.4933
    endloop
  endfacet
  facet normal 0 0.595703 -0.803205
    outer loop
      vertex 8 74.8332 51.9843
      vertex 6 74.1711 51.4933
      vertex 6 74.8332 51.9843
    endloop
  endfacet
  facet normal 0 -0.857727 -0.514106
    outer loop
      vertex 6 86.9081 48.9597
      vertex 8 86.4843 49.6668
      vertex 6 86.4843 49.6668
    endloop
  endfacet
  facet normal 0 -0.857727 -0.514106
    outer loop
      vertex 8 86.4843 49.6668
      vertex 6 86.9081 48.9597
      vertex 8 86.9081 48.9597
    endloop
  endfacet
  facet normal 0 -0.740953 -0.671557
    outer loop
      vertex 6 85.9933 50.3289
      vertex 8 85.4397 50.9397
      vertex 6 85.4397 50.9397
    endloop
  endfacet
  facet normal 0 -0.740953 -0.671557
    outer loop
      vertex 8 85.4397 50.9397
      vertex 6 85.9933 50.3289
      vertex 8 85.9933 50.3289
    endloop
  endfacet
  facet normal -0 0.33689 0.941544
    outer loop
      vertex 6 77.0616 36.9617
      vertex 8 76.2855 37.2394
      vertex 8 77.0616 36.9617
    endloop
  endfacet
  facet normal 0 0.33689 0.941544
    outer loop
      vertex 8 76.2855 37.2394
      vertex 6 77.0616 36.9617
      vertex 6 76.2855 37.2394
    endloop
  endfacet
  facet normal -0 0.595703 0.803205
    outer loop
      vertex 6 74.8332 38.0157
      vertex 8 74.1711 38.5067
      vertex 8 74.8332 38.0157
    endloop
  endfacet
  facet normal 0 0.595703 0.803205
    outer loop
      vertex 8 74.1711 38.5067
      vertex 6 74.8332 38.0157
      vertex 6 74.1711 38.5067
    endloop
  endfacet
  facet normal -0 0.5141 0.85773
    outer loop
      vertex 6 75.5403 37.5919
      vertex 8 74.8332 38.0157
      vertex 8 75.5403 37.5919
    endloop
  endfacet
  facet normal 0 0.5141 0.85773
    outer loop
      vertex 8 74.8332 38.0157
      vertex 6 75.5403 37.5919
      vertex 6 74.8332 38.0157
    endloop
  endfacet
  facet normal -0 0.146726 0.989177
    outer loop
      vertex 6 78.6767 36.6404
      vertex 8 77.8612 36.7614
      vertex 8 78.6767 36.6404
    endloop
  endfacet
  facet normal 0 0.146726 0.989177
    outer loop
      vertex 8 77.8612 36.7614
      vertex 6 78.6767 36.6404
      vertex 6 77.8612 36.7614
    endloop
  endfacet
  facet normal -0 0.242982 0.970031
    outer loop
      vertex 6 77.8612 36.7614
      vertex 8 77.0616 36.9617
      vertex 8 77.8612 36.7614
    endloop
  endfacet
  facet normal 0 0.242982 0.970031
    outer loop
      vertex 8 77.0616 36.9617
      vertex 6 77.8612 36.7614
      vertex 6 77.0616 36.9617
    endloop
  endfacet
  facet normal -0 0.0490712 0.998795
    outer loop
      vertex 6 79.5 36.6
      vertex 8 78.6767 36.6404
      vertex 8 79.5 36.6
    endloop
  endfacet
  facet normal 0 0.0490712 0.998795
    outer loop
      vertex 8 78.6767 36.6404
      vertex 6 79.5 36.6
      vertex 6 78.6767 36.6404
    endloop
  endfacet
  facet normal 0 -0.24298 0.970031
    outer loop
      vertex 6 81.9384 36.9617
      vertex 8 81.1388 36.7614
      vertex 8 81.9384 36.9617
    endloop
  endfacet
  facet normal 0 -0.24298 0.970031
    outer loop
      vertex 8 81.1388 36.7614
      vertex 6 81.9384 36.9617
      vertex 6 81.1388 36.7614
    endloop
  endfacet
  facet normal 0 -0.427556 0.903989
    outer loop
      vertex 6 83.4597 37.5919
      vertex 8 82.7145 37.2394
      vertex 8 83.4597 37.5919
    endloop
  endfacet
  facet normal 0 -0.427556 0.903989
    outer loop
      vertex 8 82.7145 37.2394
      vertex 6 83.4597 37.5919
      vertex 6 82.7145 37.2394
    endloop
  endfacet
  facet normal 0 -0.857727 0.514106
    outer loop
      vertex 6 86.4843 40.3332
      vertex 8 86.9081 41.0403
      vertex 6 86.9081 41.0403
    endloop
  endfacet
  facet normal 0 -0.857727 0.514106
    outer loop
      vertex 8 86.9081 41.0403
      vertex 6 86.4843 40.3332
      vertex 8 86.4843 40.3332
    endloop
  endfacet
  facet normal 0 -0.0490712 -0.998795
    outer loop
      vertex 6 79.5 53.4
      vertex 8 80.3233 53.3596
      vertex 8 79.5 53.4
    endloop
  endfacet
  facet normal -0 -0.0490712 -0.998795
    outer loop
      vertex 8 80.3233 53.3596
      vertex 6 79.5 53.4
      vertex 6 80.3233 53.3596
    endloop
  endfacet
  facet normal 0 -0.146732 -0.989176
    outer loop
      vertex 6 80.3233 53.3596
      vertex 8 81.1388 53.2386
      vertex 8 80.3233 53.3596
    endloop
  endfacet
  facet normal -0 -0.146732 -0.989176
    outer loop
      vertex 8 81.1388 53.2386
      vertex 6 80.3233 53.3596
      vertex 6 81.1388 53.2386
    endloop
  endfacet
  facet normal 0 -0.903991 -0.427552
    outer loop
      vertex 6 87.2606 48.2145
      vertex 8 86.9081 48.9597
      vertex 6 86.9081 48.9597
    endloop
  endfacet
  facet normal 0 -0.903991 -0.427552
    outer loop
      vertex 8 86.9081 48.9597
      vertex 6 87.2606 48.2145
      vertex 8 87.2606 48.2145
    endloop
  endfacet
  facet normal 0 0.857727 0.514106
    outer loop
      vertex 8 72.5157 40.3332
      vertex 6 72.0919 41.0403
      vertex 8 72.0919 41.0403
    endloop
  endfacet
  facet normal 0 0.857727 0.514106
    outer loop
      vertex 6 72.0919 41.0403
      vertex 8 72.5157 40.3332
      vertex 6 72.5157 40.3332
    endloop
  endfacet
  facet normal 0 0.989176 0.146732
    outer loop
      vertex 8 71.2614 43.3612
      vertex 6 71.1404 44.1767
      vertex 8 71.1404 44.1767
    endloop
  endfacet
  facet normal 0 0.989176 0.146732
    outer loop
      vertex 6 71.1404 44.1767
      vertex 8 71.2614 43.3612
      vertex 6 71.2614 43.3612
    endloop
  endfacet
  facet normal 0 0.941544 0.336889
    outer loop
      vertex 8 71.7394 41.7855
      vertex 6 71.4617 42.5616
      vertex 8 71.4617 42.5616
    endloop
  endfacet
  facet normal 0 0.941544 0.336889
    outer loop
      vertex 6 71.4617 42.5616
      vertex 8 71.7394 41.7855
      vertex 6 71.7394 41.7855
    endloop
  endfacet
  facet normal 0 0.90399 0.427554
    outer loop
      vertex 8 72.0919 41.0403
      vertex 6 71.7394 41.7855
      vertex 8 71.7394 41.7855
    endloop
  endfacet
  facet normal 0 0.90399 0.427554
    outer loop
      vertex 6 71.7394 41.7855
      vertex 8 72.0919 41.0403
      vertex 6 72.0919 41.0403
    endloop
  endfacet
  facet normal 0 0.998795 0.0490709
    outer loop
      vertex 8 71.1404 44.1767
      vertex 6 71.1 45
      vertex 8 71.1 45
    endloop
  endfacet
  facet normal 0 0.998795 0.0490709
    outer loop
      vertex 6 71.1 45
      vertex 8 71.1404 44.1767
      vertex 6 71.1404 44.1767
    endloop
  endfacet
  facet normal 0 0.671557 -0.740953
    outer loop
      vertex 6 73.5603 50.9397
      vertex 8 74.1711 51.4933
      vertex 8 73.5603 50.9397
    endloop
  endfacet
  facet normal 0 0.671557 -0.740953
    outer loop
      vertex 8 74.1711 51.4933
      vertex 6 73.5603 50.9397
      vertex 6 74.1711 51.4933
    endloop
  endfacet
  facet normal 0 0.5141 -0.85773
    outer loop
      vertex 6 74.8332 51.9843
      vertex 8 75.5403 52.4081
      vertex 8 74.8332 51.9843
    endloop
  endfacet
  facet normal 0 0.5141 -0.85773
    outer loop
      vertex 8 75.5403 52.4081
      vertex 6 74.8332 51.9843
      vertex 6 75.5403 52.4081
    endloop
  endfacet
  facet normal 0 0.242978 -0.970032
    outer loop
      vertex 6 77.0616 53.0383
      vertex 8 77.8612 53.2386
      vertex 8 77.0616 53.0383
    endloop
  endfacet
  facet normal 0 0.242978 -0.970032
    outer loop
      vertex 8 77.8612 53.2386
      vertex 6 77.0616 53.0383
      vertex 6 77.8612 53.2386
    endloop
  endfacet
  facet normal 0 -0.740953 0.671557
    outer loop
      vertex 6 85.4397 39.0603
      vertex 8 85.9933 39.6711
      vertex 6 85.9933 39.6711
    endloop
  endfacet
  facet normal 0 -0.740953 0.671557
    outer loop
      vertex 8 85.9933 39.6711
      vertex 6 85.4397 39.0603
      vertex 8 85.4397 39.0603
    endloop
  endfacet
  facet normal 0 -0.427556 -0.903989
    outer loop
      vertex 6 82.7145 52.7606
      vertex 8 83.4597 52.4081
      vertex 8 82.7145 52.7606
    endloop
  endfacet
  facet normal -0 -0.427556 -0.903989
    outer loop
      vertex 8 83.4597 52.4081
      vertex 6 82.7145 52.7606
      vertex 6 83.4597 52.4081
    endloop
  endfacet
  facet normal 0 -0.33689 -0.941544
    outer loop
      vertex 6 81.9384 53.0383
      vertex 8 82.7145 52.7606
      vertex 8 81.9384 53.0383
    endloop
  endfacet
  facet normal -0 -0.33689 -0.941544
    outer loop
      vertex 8 82.7145 52.7606
      vertex 6 81.9384 53.0383
      vertex 6 82.7145 52.7606
    endloop
  endfacet
  facet normal 0 0.970032 0.242977
    outer loop
      vertex 8 71.4617 42.5616
      vertex 6 71.2614 43.3612
      vertex 8 71.2614 43.3612
    endloop
  endfacet
  facet normal 0 0.970032 0.242977
    outer loop
      vertex 6 71.2614 43.3612
      vertex 8 71.4617 42.5616
      vertex 6 71.4617 42.5616
    endloop
  endfacet
  facet normal 0 0.903991 -0.427552
    outer loop
      vertex 8 71.7394 48.2145
      vertex 6 72.0919 48.9597
      vertex 8 72.0919 48.9597
    endloop
  endfacet
  facet normal 0 0.903991 -0.427552
    outer loop
      vertex 6 72.0919 48.9597
      vertex 8 71.7394 48.2145
      vertex 6 71.7394 48.2145
    endloop
  endfacet
  facet normal 0 0.427556 -0.903989
    outer loop
      vertex 6 75.5403 52.4081
      vertex 8 76.2855 52.7606
      vertex 8 75.5403 52.4081
    endloop
  endfacet
  facet normal 0 0.427556 -0.903989
    outer loop
      vertex 8 76.2855 52.7606
      vertex 6 75.5403 52.4081
      vertex 6 76.2855 52.7606
    endloop
  endfacet
  facet normal 0 0.33689 -0.941544
    outer loop
      vertex 6 76.2855 52.7606
      vertex 8 77.0616 53.0383
      vertex 8 76.2855 52.7606
    endloop
  endfacet
  facet normal 0 0.33689 -0.941544
    outer loop
      vertex 8 77.0616 53.0383
      vertex 6 76.2855 52.7606
      vertex 6 77.0616 53.0383
    endloop
  endfacet
  facet normal 0 0.14673 -0.989177
    outer loop
      vertex 6 77.8612 53.2386
      vertex 8 78.6767 53.3596
      vertex 8 77.8612 53.2386
    endloop
  endfacet
  facet normal 0 0.14673 -0.989177
    outer loop
      vertex 8 78.6767 53.3596
      vertex 6 77.8612 53.2386
      vertex 6 78.6767 53.3596
    endloop
  endfacet
  facet normal 0 -0.803207 -0.595701
    outer loop
      vertex 6 86.4843 49.6668
      vertex 8 85.9933 50.3289
      vertex 6 85.9933 50.3289
    endloop
  endfacet
  facet normal 0 -0.803207 -0.595701
    outer loop
      vertex 8 85.9933 50.3289
      vertex 6 86.4843 49.6668
      vertex 8 86.4843 49.6668
    endloop
  endfacet
  facet normal 0 0.941544 -0.33689
    outer loop
      vertex 8 71.4617 47.4384
      vertex 6 71.7394 48.2145
      vertex 8 71.7394 48.2145
    endloop
  endfacet
  facet normal 0 0.941544 -0.33689
    outer loop
      vertex 6 71.7394 48.2145
      vertex 8 71.4617 47.4384
      vertex 6 71.4617 47.4384
    endloop
  endfacet
  facet normal 0 0.989176 -0.146731
    outer loop
      vertex 8 71.1404 45.8233
      vertex 6 71.2614 46.6388
      vertex 8 71.2614 46.6388
    endloop
  endfacet
  facet normal 0 0.989176 -0.146731
    outer loop
      vertex 6 71.2614 46.6388
      vertex 8 71.1404 45.8233
      vertex 6 71.1404 45.8233
    endloop
  endfacet
  facet normal 0 0.970032 -0.242977
    outer loop
      vertex 8 71.2614 46.6388
      vertex 6 71.4617 47.4384
      vertex 8 71.4617 47.4384
    endloop
  endfacet
  facet normal 0 0.970032 -0.242977
    outer loop
      vertex 6 71.4617 47.4384
      vertex 8 71.2614 46.6388
      vertex 6 71.2614 46.6388
    endloop
  endfacet
  facet normal 0 0.857727 -0.514106
    outer loop
      vertex 8 72.0919 48.9597
      vertex 6 72.5157 49.6668
      vertex 8 72.5157 49.6668
    endloop
  endfacet
  facet normal 0 0.857727 -0.514106
    outer loop
      vertex 6 72.5157 49.6668
      vertex 8 72.0919 48.9597
      vertex 6 72.0919 48.9597
    endloop
  endfacet
  facet normal 0 0.803207 -0.595701
    outer loop
      vertex 8 72.5157 49.6668
      vertex 6 73.0067 50.3289
      vertex 8 73.0067 50.3289
    endloop
  endfacet
  facet normal 0 0.803207 -0.595701
    outer loop
      vertex 6 73.0067 50.3289
      vertex 8 72.5157 49.6668
      vertex 6 72.5157 49.6668
    endloop
  endfacet
  facet normal -0.980785 -0.195093 0
    outer loop
      vertex 4.5 95 31
      vertex 4.42388 95.3827 33
      vertex 4.42388 95.3827 31
    endloop
  endfacet
  facet normal -0.980785 -0.195093 0
    outer loop
      vertex 4.42388 95.3827 33
      vertex 4.5 95 31
      vertex 4.5 95 33
    endloop
  endfacet
  facet normal 0.195085 -0.980786 0
    outer loop
      vertex 3.11732 95.9239 31
      vertex 3.5 96 33
      vertex 3.11732 95.9239 33
    endloop
  endfacet
  facet normal 0.195085 -0.980786 0
    outer loop
      vertex 3.5 96 33
      vertex 3.11732 95.9239 31
      vertex 3.5 96 31
    endloop
  endfacet
  facet normal -0.195086 0.980786 0
    outer loop
      vertex 3.88268 94.0761 31
      vertex 3.5 94 33
      vertex 3.88268 94.0761 33
    endloop
  endfacet
  facet normal -0.195086 0.980786 0
    outer loop
      vertex 3.5 94 33
      vertex 3.88268 94.0761 31
      vertex 3.5 94 31
    endloop
  endfacet
  facet normal -0.555572 0.831468 0
    outer loop
      vertex 4.20711 94.2929 31
      vertex 3.88268 94.0761 33
      vertex 4.20711 94.2929 33
    endloop
  endfacet
  facet normal -0.555572 0.831468 0
    outer loop
      vertex 3.88268 94.0761 33
      vertex 4.20711 94.2929 31
      vertex 3.88268 94.0761 31
    endloop
  endfacet
  facet normal -0.555572 -0.831468 0
    outer loop
      vertex 3.88268 95.9239 31
      vertex 4.20711 95.7071 33
      vertex 3.88268 95.9239 33
    endloop
  endfacet
  facet normal -0.555572 -0.831468 -0
    outer loop
      vertex 4.20711 95.7071 33
      vertex 3.88268 95.9239 31
      vertex 4.20711 95.7071 31
    endloop
  endfacet
  facet normal -0.831472 -0.555567 0
    outer loop
      vertex 4.42388 95.3827 31
      vertex 4.20711 95.7071 33
      vertex 4.20711 95.7071 31
    endloop
  endfacet
  facet normal -0.831472 -0.555567 0
    outer loop
      vertex 4.20711 95.7071 33
      vertex 4.42388 95.3827 31
      vertex 4.42388 95.3827 33
    endloop
  endfacet
  facet normal -0.195086 -0.980786 0
    outer loop
      vertex 3.5 96 31
      vertex 3.88268 95.9239 33
      vertex 3.5 96 33
    endloop
  endfacet
  facet normal -0.195086 -0.980786 -0
    outer loop
      vertex 3.88268 95.9239 33
      vertex 3.5 96 31
      vertex 3.88268 95.9239 31
    endloop
  endfacet
  facet normal 0.831472 -0.555567 0
    outer loop
      vertex 2.57612 95.3827 33
      vertex 2.79289 95.7071 31
      vertex 2.79289 95.7071 33
    endloop
  endfacet
  facet normal 0.831472 -0.555567 0
    outer loop
      vertex 2.79289 95.7071 31
      vertex 2.57612 95.3827 33
      vertex 2.57612 95.3827 31
    endloop
  endfacet
  facet normal 0.980785 -0.19509 0
    outer loop
      vertex 2.5 95 33
      vertex 2.57612 95.3827 31
      vertex 2.57612 95.3827 33
    endloop
  endfacet
  facet normal 0.980785 -0.19509 0
    outer loop
      vertex 2.57612 95.3827 31
      vertex 2.5 95 33
      vertex 2.5 95 31
    endloop
  endfacet
  facet normal 0.555572 -0.831468 0
    outer loop
      vertex 2.79289 95.7071 31
      vertex 3.11732 95.9239 33
      vertex 2.79289 95.7071 33
    endloop
  endfacet
  facet normal 0.555572 -0.831468 0
    outer loop
      vertex 3.11732 95.9239 33
      vertex 2.79289 95.7071 31
      vertex 3.11732 95.9239 31
    endloop
  endfacet
  facet normal -0.980785 0.195093 0
    outer loop
      vertex 4.42388 94.6173 31
      vertex 4.5 95 33
      vertex 4.5 95 31
    endloop
  endfacet
  facet normal -0.980785 0.195093 0
    outer loop
      vertex 4.5 95 33
      vertex 4.42388 94.6173 31
      vertex 4.42388 94.6173 33
    endloop
  endfacet
  facet normal 0.195085 0.980786 -0
    outer loop
      vertex 3.5 94 31
      vertex 3.11732 94.0761 33
      vertex 3.5 94 33
    endloop
  endfacet
  facet normal 0.195085 0.980786 0
    outer loop
      vertex 3.11732 94.0761 33
      vertex 3.5 94 31
      vertex 3.11732 94.0761 31
    endloop
  endfacet
  facet normal 0.831472 0.555567 0
    outer loop
      vertex 2.79289 94.2929 33
      vertex 2.57612 94.6173 31
      vertex 2.57612 94.6173 33
    endloop
  endfacet
  facet normal 0.831472 0.555567 0
    outer loop
      vertex 2.57612 94.6173 31
      vertex 2.79289 94.2929 33
      vertex 2.79289 94.2929 31
    endloop
  endfacet
  facet normal 0.980785 0.19509 0
    outer loop
      vertex 2.57612 94.6173 33
      vertex 2.5 95 31
      vertex 2.5 95 33
    endloop
  endfacet
  facet normal 0.980785 0.19509 0
    outer loop
      vertex 2.5 95 31
      vertex 2.57612 94.6173 33
      vertex 2.57612 94.6173 31
    endloop
  endfacet
  facet normal -0.831472 0.555567 0
    outer loop
      vertex 4.20711 94.2929 31
      vertex 4.42388 94.6173 33
      vertex 4.42388 94.6173 31
    endloop
  endfacet
  facet normal -0.831472 0.555567 0
    outer loop
      vertex 4.42388 94.6173 33
      vertex 4.20711 94.2929 31
      vertex 4.20711 94.2929 33
    endloop
  endfacet
  facet normal 0.555572 0.831468 -0
    outer loop
      vertex 3.11732 94.0761 31
      vertex 2.79289 94.2929 33
      vertex 3.11732 94.0761 33
    endloop
  endfacet
  facet normal 0.555572 0.831468 0
    outer loop
      vertex 2.79289 94.2929 33
      vertex 3.11732 94.0761 31
      vertex 2.79289 94.2929 31
    endloop
  endfacet
  facet normal -0.980785 -0.195093 0
    outer loop
      vertex 4.5 65 31
      vertex 4.42388 65.3827 33
      vertex 4.42388 65.3827 31
    endloop
  endfacet
  facet normal -0.980785 -0.195093 0
    outer loop
      vertex 4.42388 65.3827 33
      vertex 4.5 65 31
      vertex 4.5 65 33
    endloop
  endfacet
  facet normal 0.195085 -0.980786 0
    outer loop
      vertex 3.11732 65.9239 31
      vertex 3.5 66 33
      vertex 3.11732 65.9239 33
    endloop
  endfacet
  facet normal 0.195085 -0.980786 0
    outer loop
      vertex 3.5 66 33
      vertex 3.11732 65.9239 31
      vertex 3.5 66 31
    endloop
  endfacet
  facet normal -0.555572 0.831468 0
    outer loop
      vertex 4.20711 64.2929 31
      vertex 3.88268 64.0761 33
      vertex 4.20711 64.2929 33
    endloop
  endfacet
  facet normal -0.555572 0.831468 0
    outer loop
      vertex 3.88268 64.0761 33
      vertex 4.20711 64.2929 31
      vertex 3.88268 64.0761 31
    endloop
  endfacet
  facet normal -0.555572 -0.831468 0
    outer loop
      vertex 3.88268 65.9239 31
      vertex 4.20711 65.7071 33
      vertex 3.88268 65.9239 33
    endloop
  endfacet
  facet normal -0.555572 -0.831468 -0
    outer loop
      vertex 4.20711 65.7071 33
      vertex 3.88268 65.9239 31
      vertex 4.20711 65.7071 31
    endloop
  endfacet
  facet normal -0.831472 -0.555567 0
    outer loop
      vertex 4.42388 65.3827 31
      vertex 4.20711 65.7071 33
      vertex 4.20711 65.7071 31
    endloop
  endfacet
  facet normal -0.831472 -0.555567 0
    outer loop
      vertex 4.20711 65.7071 33
      vertex 4.42388 65.3827 31
      vertex 4.42388 65.3827 33
    endloop
  endfacet
  facet normal -0.195086 -0.980786 0
    outer loop
      vertex 3.5 66 31
      vertex 3.88268 65.9239 33
      vertex 3.5 66 33
    endloop
  endfacet
  facet normal -0.195086 -0.980786 -0
    outer loop
      vertex 3.88268 65.9239 33
      vertex 3.5 66 31
      vertex 3.88268 65.9239 31
    endloop
  endfacet
  facet normal 0.831472 -0.555567 0
    outer loop
      vertex 2.57612 65.3827 33
      vertex 2.79289 65.7071 31
      vertex 2.79289 65.7071 33
    endloop
  endfacet
  facet normal 0.831472 -0.555567 0
    outer loop
      vertex 2.79289 65.7071 31
      vertex 2.57612 65.3827 33
      vertex 2.57612 65.3827 31
    endloop
  endfacet
  facet normal 0.980785 -0.19509 0
    outer loop
      vertex 2.5 65 33
      vertex 2.57612 65.3827 31
      vertex 2.57612 65.3827 33
    endloop
  endfacet
  facet normal 0.980785 -0.19509 0
    outer loop
      vertex 2.57612 65.3827 31
      vertex 2.5 65 33
      vertex 2.5 65 31
    endloop
  endfacet
  facet normal 0.555572 -0.831468 0
    outer loop
      vertex 2.79289 65.7071 31
      vertex 3.11732 65.9239 33
      vertex 2.79289 65.7071 33
    endloop
  endfacet
  facet normal 0.555572 -0.831468 0
    outer loop
      vertex 3.11732 65.9239 33
      vertex 2.79289 65.7071 31
      vertex 3.11732 65.9239 31
    endloop
  endfacet
  facet normal -0.980785 0.195093 0
    outer loop
      vertex 4.42388 64.6173 31
      vertex 4.5 65 33
      vertex 4.5 65 31
    endloop
  endfacet
  facet normal -0.980785 0.195093 0
    outer loop
      vertex 4.5 65 33
      vertex 4.42388 64.6173 31
      vertex 4.42388 64.6173 33
    endloop
  endfacet
  facet normal 0.195085 0.980786 -0
    outer loop
      vertex 3.5 64 31
      vertex 3.11732 64.0761 33
      vertex 3.5 64 33
    endloop
  endfacet
  facet normal 0.195085 0.980786 0
    outer loop
      vertex 3.11732 64.0761 33
      vertex 3.5 64 31
      vertex 3.11732 64.0761 31
    endloop
  endfacet
  facet normal 0.831472 0.555567 0
    outer loop
      vertex 2.79289 64.2929 33
      vertex 2.57612 64.6173 31
      vertex 2.57612 64.6173 33
    endloop
  endfacet
  facet normal 0.831472 0.555567 0
    outer loop
      vertex 2.57612 64.6173 31
      vertex 2.79289 64.2929 33
      vertex 2.79289 64.2929 31
    endloop
  endfacet
  facet normal 0.980785 0.19509 0
    outer loop
      vertex 2.57612 64.6173 33
      vertex 2.5 65 31
      vertex 2.5 65 33
    endloop
  endfacet
  facet normal 0.980785 0.19509 0
    outer loop
      vertex 2.5 65 31
      vertex 2.57612 64.6173 33
      vertex 2.57612 64.6173 31
    endloop
  endfacet
  facet normal -0.831472 0.555567 0
    outer loop
      vertex 4.20711 64.2929 31
      vertex 4.42388 64.6173 33
      vertex 4.42388 64.6173 31
    endloop
  endfacet
  facet normal -0.831472 0.555567 0
    outer loop
      vertex 4.42388 64.6173 33
      vertex 4.20711 64.2929 31
      vertex 4.20711 64.2929 33
    endloop
  endfacet
  facet normal -0.195086 0.980786 0
    outer loop
      vertex 3.88268 64.0761 31
      vertex 3.5 64 33
      vertex 3.88268 64.0761 33
    endloop
  endfacet
  facet normal -0.195086 0.980786 0
    outer loop
      vertex 3.5 64 33
      vertex 3.88268 64.0761 31
      vertex 3.5 64 31
    endloop
  endfacet
  facet normal 0.555572 0.831468 -0
    outer loop
      vertex 3.11732 64.0761 31
      vertex 2.79289 64.2929 33
      vertex 3.11732 64.0761 33
    endloop
  endfacet
  facet normal 0.555572 0.831468 0
    outer loop
      vertex 2.79289 64.2929 33
      vertex 3.11732 64.0761 31
      vertex 2.79289 64.2929 31
    endloop
  endfacet
  facet normal -0.980784 -0.195095 0
    outer loop
      vertex 34.5 95 31
      vertex 34.4239 95.3827 33
      vertex 34.4239 95.3827 31
    endloop
  endfacet
  facet normal -0.980784 -0.195095 0
    outer loop
      vertex 34.4239 95.3827 33
      vertex 34.5 95 31
      vertex 34.5 95 33
    endloop
  endfacet
  facet normal 0.195086 -0.980786 0
    outer loop
      vertex 33.1173 95.9239 31
      vertex 33.5 96 33
      vertex 33.1173 95.9239 33
    endloop
  endfacet
  facet normal 0.195086 -0.980786 0
    outer loop
      vertex 33.5 96 33
      vertex 33.1173 95.9239 31
      vertex 33.5 96 31
    endloop
  endfacet
  facet normal -0.195086 0.980786 0
    outer loop
      vertex 33.8827 94.0761 31
      vertex 33.5 94 33
      vertex 33.8827 94.0761 33
    endloop
  endfacet
  facet normal -0.195086 0.980786 0
    outer loop
      vertex 33.5 94 33
      vertex 33.8827 94.0761 31
      vertex 33.5 94 31
    endloop
  endfacet
  facet normal -0.555571 0.831469 0
    outer loop
      vertex 34.2071 94.2929 31
      vertex 33.8827 94.0761 33
      vertex 34.2071 94.2929 33
    endloop
  endfacet
  facet normal -0.555571 0.831469 0
    outer loop
      vertex 33.8827 94.0761 33
      vertex 34.2071 94.2929 31
      vertex 33.8827 94.0761 31
    endloop
  endfacet
  facet normal -0.555571 -0.831469 0
    outer loop
      vertex 33.8827 95.9239 31
      vertex 34.2071 95.7071 33
      vertex 33.8827 95.9239 33
    endloop
  endfacet
  facet normal -0.555571 -0.831469 -0
    outer loop
      vertex 34.2071 95.7071 33
      vertex 33.8827 95.9239 31
      vertex 34.2071 95.7071 31
    endloop
  endfacet
  facet normal -0.831474 -0.555564 0
    outer loop
      vertex 34.4239 95.3827 31
      vertex 34.2071 95.7071 33
      vertex 34.2071 95.7071 31
    endloop
  endfacet
  facet normal -0.831474 -0.555564 0
    outer loop
      vertex 34.2071 95.7071 33
      vertex 34.4239 95.3827 31
      vertex 34.4239 95.3827 33
    endloop
  endfacet
  facet normal -0.195086 -0.980786 0
    outer loop
      vertex 33.5 96 31
      vertex 33.8827 95.9239 33
      vertex 33.5 96 33
    endloop
  endfacet
  facet normal -0.195086 -0.980786 -0
    outer loop
      vertex 33.8827 95.9239 33
      vertex 33.5 96 31
      vertex 33.8827 95.9239 31
    endloop
  endfacet
  facet normal 0.831469 -0.555571 0
    outer loop
      vertex 32.5761 95.3827 33
      vertex 32.7929 95.7071 31
      vertex 32.7929 95.7071 33
    endloop
  endfacet
  facet normal 0.831469 -0.555571 0
    outer loop
      vertex 32.7929 95.7071 31
      vertex 32.5761 95.3827 33
      vertex 32.5761 95.3827 31
    endloop
  endfacet
  facet normal 0.980786 -0.195086 0
    outer loop
      vertex 32.5 95 33
      vertex 32.5761 95.3827 31
      vertex 32.5761 95.3827 33
    endloop
  endfacet
  facet normal 0.980786 -0.195086 0
    outer loop
      vertex 32.5761 95.3827 31
      vertex 32.5 95 33
      vertex 32.5 95 31
    endloop
  endfacet
  facet normal 0.555571 -0.831469 0
    outer loop
      vertex 32.7929 95.7071 31
      vertex 33.1173 95.9239 33
      vertex 32.7929 95.7071 33
    endloop
  endfacet
  facet normal 0.555571 -0.831469 0
    outer loop
      vertex 33.1173 95.9239 33
      vertex 32.7929 95.7071 31
      vertex 33.1173 95.9239 31
    endloop
  endfacet
  facet normal -0.980784 0.195095 0
    outer loop
      vertex 34.4239 94.6173 31
      vertex 34.5 95 33
      vertex 34.5 95 31
    endloop
  endfacet
  facet normal -0.980784 0.195095 0
    outer loop
      vertex 34.5 95 33
      vertex 34.4239 94.6173 31
      vertex 34.4239 94.6173 33
    endloop
  endfacet
  facet normal 0.195086 0.980786 -0
    outer loop
      vertex 33.5 94 31
      vertex 33.1173 94.0761 33
      vertex 33.5 94 33
    endloop
  endfacet
  facet normal 0.195086 0.980786 0
    outer loop
      vertex 33.1173 94.0761 33
      vertex 33.5 94 31
      vertex 33.1173 94.0761 31
    endloop
  endfacet
  facet normal 0.831469 0.555571 0
    outer loop
      vertex 32.7929 94.2929 33
      vertex 32.5761 94.6173 31
      vertex 32.5761 94.6173 33
    endloop
  endfacet
  facet normal 0.831469 0.555571 0
    outer loop
      vertex 32.5761 94.6173 31
      vertex 32.7929 94.2929 33
      vertex 32.7929 94.2929 31
    endloop
  endfacet
  facet normal 0.980786 0.195086 0
    outer loop
      vertex 32.5761 94.6173 33
      vertex 32.5 95 31
      vertex 32.5 95 33
    endloop
  endfacet
  facet normal 0.980786 0.195086 0
    outer loop
      vertex 32.5 95 31
      vertex 32.5761 94.6173 33
      vertex 32.5761 94.6173 31
    endloop
  endfacet
  facet normal -0.831474 0.555564 0
    outer loop
      vertex 34.2071 94.2929 31
      vertex 34.4239 94.6173 33
      vertex 34.4239 94.6173 31
    endloop
  endfacet
  facet normal -0.831474 0.555564 0
    outer loop
      vertex 34.4239 94.6173 33
      vertex 34.2071 94.2929 31
      vertex 34.2071 94.2929 33
    endloop
  endfacet
  facet normal 0.555571 0.831469 -0
    outer loop
      vertex 33.1173 94.0761 31
      vertex 32.7929 94.2929 33
      vertex 33.1173 94.0761 33
    endloop
  endfacet
  facet normal 0.555571 0.831469 0
    outer loop
      vertex 32.7929 94.2929 33
      vertex 33.1173 94.0761 31
      vertex 32.7929 94.2929 31
    endloop
  endfacet
  facet normal -0.980784 -0.195095 0
    outer loop
      vertex 34.5 65 31
      vertex 34.4239 65.3827 33
      vertex 34.4239 65.3827 31
    endloop
  endfacet
  facet normal -0.980784 -0.195095 0
    outer loop
      vertex 34.4239 65.3827 33
      vertex 34.5 65 31
      vertex 34.5 65 33
    endloop
  endfacet
  facet normal 0.195086 -0.980786 0
    outer loop
      vertex 33.1173 65.9239 31
      vertex 33.5 66 33
      vertex 33.1173 65.9239 33
    endloop
  endfacet
  facet normal 0.195086 -0.980786 0
    outer loop
      vertex 33.5 66 33
      vertex 33.1173 65.9239 31
      vertex 33.5 66 31
    endloop
  endfacet
  facet normal -0.195086 0.980786 0
    outer loop
      vertex 33.8827 64.0761 31
      vertex 33.5 64 33
      vertex 33.8827 64.0761 33
    endloop
  endfacet
  facet normal -0.195086 0.980786 0
    outer loop
      vertex 33.5 64 33
      vertex 33.8827 64.0761 31
      vertex 33.5 64 31
    endloop
  endfacet
  facet normal -0.555571 0.831469 0
    outer loop
      vertex 34.2071 64.2929 31
      vertex 33.8827 64.0761 33
      vertex 34.2071 64.2929 33
    endloop
  endfacet
  facet normal -0.555571 0.831469 0
    outer loop
      vertex 33.8827 64.0761 33
      vertex 34.2071 64.2929 31
      vertex 33.8827 64.0761 31
    endloop
  endfacet
  facet normal -0.555571 -0.831469 0
    outer loop
      vertex 33.8827 65.9239 31
      vertex 34.2071 65.7071 33
      vertex 33.8827 65.9239 33
    endloop
  endfacet
  facet normal -0.555571 -0.831469 -0
    outer loop
      vertex 34.2071 65.7071 33
      vertex 33.8827 65.9239 31
      vertex 34.2071 65.7071 31
    endloop
  endfacet
  facet normal -0.831474 -0.555564 0
    outer loop
      vertex 34.4239 65.3827 31
      vertex 34.2071 65.7071 33
      vertex 34.2071 65.7071 31
    endloop
  endfacet
  facet normal -0.831474 -0.555564 0
    outer loop
      vertex 34.2071 65.7071 33
      vertex 34.4239 65.3827 31
      vertex 34.4239 65.3827 33
    endloop
  endfacet
  facet normal -0.195086 -0.980786 0
    outer loop
      vertex 33.5 66 31
      vertex 33.8827 65.9239 33
      vertex 33.5 66 33
    endloop
  endfacet
  facet normal -0.195086 -0.980786 -0
    outer loop
      vertex 33.8827 65.9239 33
      vertex 33.5 66 31
      vertex 33.8827 65.9239 31
    endloop
  endfacet
  facet normal 0.831469 -0.555571 0
    outer loop
      vertex 32.5761 65.3827 33
      vertex 32.7929 65.7071 31
      vertex 32.7929 65.7071 33
    endloop
  endfacet
  facet normal 0.831469 -0.555571 0
    outer loop
      vertex 32.7929 65.7071 31
      vertex 32.5761 65.3827 33
      vertex 32.5761 65.3827 31
    endloop
  endfacet
  facet normal 0.980786 -0.195086 0
    outer loop
      vertex 32.5 65 33
      vertex 32.5761 65.3827 31
      vertex 32.5761 65.3827 33
    endloop
  endfacet
  facet normal 0.980786 -0.195086 0
    outer loop
      vertex 32.5761 65.3827 31
      vertex 32.5 65 33
      vertex 32.5 65 31
    endloop
  endfacet
  facet normal 0.555571 -0.831469 0
    outer loop
      vertex 32.7929 65.7071 31
      vertex 33.1173 65.9239 33
      vertex 32.7929 65.7071 33
    endloop
  endfacet
  facet normal 0.555571 -0.831469 0
    outer loop
      vertex 33.1173 65.9239 33
      vertex 32.7929 65.7071 31
      vertex 33.1173 65.9239 31
    endloop
  endfacet
  facet normal -0.980784 0.195095 0
    outer loop
      vertex 34.4239 64.6173 31
      vertex 34.5 65 33
      vertex 34.5 65 31
    endloop
  endfacet
  facet normal -0.980784 0.195095 0
    outer loop
      vertex 34.5 65 33
      vertex 34.4239 64.6173 31
      vertex 34.4239 64.6173 33
    endloop
  endfacet
  facet normal 0.195086 0.980786 -0
    outer loop
      vertex 33.5 64 31
      vertex 33.1173 64.0761 33
      vertex 33.5 64 33
    endloop
  endfacet
  facet normal 0.195086 0.980786 0
    outer loop
      vertex 33.1173 64.0761 33
      vertex 33.5 64 31
      vertex 33.1173 64.0761 31
    endloop
  endfacet
  facet normal 0.831469 0.555571 0
    outer loop
      vertex 32.7929 64.2929 33
      vertex 32.5761 64.6173 31
      vertex 32.5761 64.6173 33
    endloop
  endfacet
  facet normal 0.831469 0.555571 0
    outer loop
      vertex 32.5761 64.6173 31
      vertex 32.7929 64.2929 33
      vertex 32.7929 64.2929 31
    endloop
  endfacet
  facet normal 0.980786 0.195086 0
    outer loop
      vertex 32.5761 64.6173 33
      vertex 32.5 65 31
      vertex 32.5 65 33
    endloop
  endfacet
  facet normal 0.980786 0.195086 0
    outer loop
      vertex 32.5 65 31
      vertex 32.5761 64.6173 33
      vertex 32.5761 64.6173 31
    endloop
  endfacet
  facet normal -0.831474 0.555564 0
    outer loop
      vertex 34.2071 64.2929 31
      vertex 34.4239 64.6173 33
      vertex 34.4239 64.6173 31
    endloop
  endfacet
  facet normal -0.831474 0.555564 0
    outer loop
      vertex 34.4239 64.6173 33
      vertex 34.2071 64.2929 31
      vertex 34.2071 64.2929 33
    endloop
  endfacet
  facet normal 0.555571 0.831469 -0
    outer loop
      vertex 33.1173 64.0761 31
      vertex 32.7929 64.2929 33
      vertex 33.1173 64.0761 33
    endloop
  endfacet
  facet normal 0.555571 0.831469 0
    outer loop
      vertex 32.7929 64.2929 33
      vertex 33.1173 64.0761 31
      vertex 32.7929 64.2929 31
    endloop
  endfacet
endsolid OpenSCAD_Model
